<?xml version="1.0" encoding="UTF-8"?><svg xmlns="http://www.w3.org/2000/svg" xmlns:xlink="http://www.w3.org/1999/xlink" fill-opacity="1" color-rendering="auto" color-interpolation="auto" text-rendering="auto" stroke="black" stroke-linecap="square" width="582" stroke-miterlimit="10" shape-rendering="auto" stroke-opacity="1" fill="black" stroke-dasharray="none" font-weight="normal" stroke-width="1" height="336" font-family="'Dialog'" font-style="normal" stroke-linejoin="miter" font-size="12px" stroke-dashoffset="0" image-rendering="auto">
  <!--Generated by ySVG 2.6-->
  <defs id="genericDefs"/>
  <g>
    <defs id="defs1">
      <linearGradient x1="163.5735" gradientUnits="userSpaceOnUse" x2="324.4265" y1="282.7018" y2="366.3833" id="linearGradient1" spreadMethod="reflect">
        <stop stop-opacity="1" stop-color="rgb(232,238,247)" offset="0%"/>
        <stop stop-opacity="1" stop-color="rgb(183,201,227)" offset="100%"/>
      </linearGradient>
      <clipPath clipPathUnits="userSpaceOnUse" id="clipPath1">
        <path d="M0 0 L582 0 L582 336 L0 336 L0 0 Z"/>
      </clipPath>
      <clipPath clipPathUnits="userSpaceOnUse" id="clipPath2">
        <path d="M117 46 L699 46 L699 382 L117 382 L117 46 Z"/>
      </clipPath>
    </defs>
    <g fill="white" text-rendering="geometricPrecision" shape-rendering="geometricPrecision" transform="translate(-117,-46)" stroke="white">
      <rect x="117" width="582" height="336" y="46" clip-path="url(#clipPath2)" stroke="none"/>
    </g>
    <g text-rendering="geometricPrecision" stroke-miterlimit="1.45" shape-rendering="geometricPrecision" transform="matrix(1,0,0,1,-117,-46)" stroke-linecap="butt">
      <rect fill="none" x="199.9178" width="88.1644" height="30" y="61" clip-path="url(#clipPath2)"/>
      <text x="207.5437" xml:space="preserve" y="80.656" clip-path="url(#clipPath2)" font-family="sans-serif" stroke="none">"contraseña"</text>
    </g>
    <g fill="rgb(255,204,0)" text-rendering="geometricPrecision" shape-rendering="geometricPrecision" transform="matrix(1,0,0,1,-117,-46)" stroke="rgb(255,204,0)">
      <path d="M174.2696 137.7018 L313.7304 137.7018 L278.8652 192.7018 L209.1348 192.7018 Z" fill-rule="evenodd" clip-path="url(#clipPath2)" stroke="none"/>
    </g>
    <g text-rendering="geometricPrecision" stroke-miterlimit="1.45" shape-rendering="geometricPrecision" transform="matrix(1,0,0,1,-117,-46)" stroke-linecap="butt">
      <path fill="none" d="M174.2696 137.7018 L313.7304 137.7018 L278.8652 192.7018 L209.1348 192.7018 Z" fill-rule="evenodd" clip-path="url(#clipPath2)"/>
      <text x="205.7497" xml:space="preserve" y="169.8578" clip-path="url(#clipPath2)" font-family="sans-serif" stroke="none">Función Hash</text>
      <rect stroke-linecap="round" x="450.9035" y="66.5244" clip-path="url(#clipPath2)" stroke-dashoffset="2" fill="none" width="139.4608" stroke-dasharray="0,4" rx="4" ry="4" height="18.9511"/>
      <text x="458.379" font-size="10px" y="79.88" clip-path="url(#clipPath2)" font-family="sans-serif" stroke="none" xml:space="preserve">Contraseña en texto plano</text>
    </g>
    <g fill="rgb(153,204,255)" text-rendering="geometricPrecision" shape-rendering="geometricPrecision" transform="matrix(1,0,0,1,-117,-46)" stroke="rgb(153,204,255)">
      <rect x="132.1997" width="223.6006" height="30" y="222.7018" clip-path="url(#clipPath2)" stroke="none"/>
    </g>
    <g text-rendering="geometricPrecision" stroke-miterlimit="1.45" shape-rendering="geometricPrecision" transform="matrix(1,0,0,1,-117,-46)" stroke-linecap="butt">
      <rect fill="none" x="132.1997" width="223.6006" height="30" y="222.7018" clip-path="url(#clipPath2)"/>
      <text x="145.7613" xml:space="preserve" y="242.3578" clip-path="url(#clipPath2)" font-family="sans-serif" stroke="none">5bf6722He/2SelP246190#452Pw32</text>
      <rect stroke-linecap="round" x="418.7847" y="228.2262" clip-path="url(#clipPath2)" stroke-dashoffset="2" fill="none" width="207.9518" stroke-dasharray="0,4" rx="4" ry="4" height="18.9511"/>
      <text x="429.2307" font-size="10px" y="241.5818" clip-path="url(#clipPath2)" font-family="sans-serif" stroke="none" xml:space="preserve">Resumen criptográfico de la contraseña</text>
    </g>
    <g fill="url(#linearGradient1)" text-rendering="geometricPrecision" shape-rendering="geometricPrecision" transform="matrix(1,0,0,1,-117,-46)" stroke="url(#linearGradient1)">
      <path d="M163.5735 299.4381 C168.3991 282.7018 319.6009 282.7018 324.4265 299.4381 L324.4265 349.647 C319.6009 366.3833 168.3991 366.3833 163.5735 349.647 Z" stroke="none" clip-path="url(#clipPath2)"/>
    </g>
    <g text-rendering="geometricPrecision" stroke-miterlimit="1.45" shape-rendering="geometricPrecision" transform="matrix(1,0,0,1,-117,-46)" stroke-linecap="butt">
      <path fill="none" d="M163.5735 299.4381 C168.3991 282.7018 319.6009 282.7018 324.4265 299.4381 L324.4265 349.647 C319.6009 366.3833 168.3991 366.3833 163.5735 349.647 Z" clip-path="url(#clipPath2)"/>
      <path fill="none" d="M324.4265 299.4381 C319.6009 316.1744 168.3991 316.1744 163.5735 299.4381" clip-path="url(#clipPath2)"/>
      <text x="175.0415" xml:space="preserve" y="329.1986" clip-path="url(#clipPath2)" font-family="sans-serif" stroke="none">Almacén de contraseñas</text>
    </g>
    <g stroke-linecap="round" transform="matrix(1,0,0,1,-117,-46)" stroke-dashoffset="2" text-rendering="geometricPrecision" shape-rendering="geometricPrecision" stroke-dasharray="0,4" stroke-miterlimit="1.45">
      <rect x="368.1441" y="315.067" clip-path="url(#clipPath2)" fill="none" width="314.9688" rx="4" ry="4" height="18.9511"/>
    </g>
    <g font-size="10px" stroke-linecap="butt" transform="matrix(1,0,0,1,-117,-46)" text-rendering="geometricPrecision" font-family="sans-serif" shape-rendering="geometricPrecision" stroke-miterlimit="1.45">
      <text x="382.5736" xml:space="preserve" y="328.4225" clip-path="url(#clipPath2)" stroke="none">La contraseña original no se almacena ni se puede recuperar</text>
      <path fill="none" d="M244 91 L244 126.7022" clip-path="url(#clipPath2)"/>
      <path d="M244 137.7022 L250 125.7022 L238 125.7022 Z" stroke="none" clip-path="url(#clipPath2)"/>
    </g>
    <g stroke-linecap="round" transform="matrix(1,0,0,1,-117,-46)" stroke-dashoffset="2" text-rendering="geometricPrecision" shape-rendering="geometricPrecision" stroke-dasharray="0,4" stroke-miterlimit="1.45">
      <path fill="none" d="M288.0822 76 L450.8854 76" clip-path="url(#clipPath2)"/>
      <path fill="none" stroke-dasharray="none" d="M244 192.7079 L244 211.7018" stroke-dashoffset="0" clip-path="url(#clipPath2)" stroke-linecap="butt"/>
      <path stroke-dasharray="none" d="M244 222.7018 L250 210.7018 L238 210.7018 Z" stroke-dashoffset="0" clip-path="url(#clipPath2)" stroke-linecap="butt" stroke="none"/>
      <path fill="none" d="M355.8003 237.7018 L418.7773 237.7018" clip-path="url(#clipPath2)"/>
      <path fill="none" stroke-dasharray="none" d="M244 252.7018 L244 275.9033" stroke-dashoffset="0" clip-path="url(#clipPath2)" stroke-linecap="butt"/>
      <path stroke-dasharray="none" d="M244 286.9033 L250 274.9033 L238 274.9033 Z" stroke-dashoffset="0" clip-path="url(#clipPath2)" stroke-linecap="butt" stroke="none"/>
      <path fill="none" d="M324.4113 324.5425 L368.1819 324.5425" clip-path="url(#clipPath2)"/>
    </g>
  </g>
</svg>
