<?xml version="1.0" encoding="UTF-8"?><svg xmlns="http://www.w3.org/2000/svg" xmlns:xlink="http://www.w3.org/1999/xlink" fill-opacity="1" color-rendering="auto" color-interpolation="auto" text-rendering="auto" stroke="black" stroke-linecap="square" width="871" stroke-miterlimit="10" shape-rendering="auto" stroke-opacity="1" fill="black" stroke-dasharray="none" font-weight="normal" stroke-width="1" height="422" font-family="'Dialog'" font-style="normal" stroke-linejoin="miter" font-size="12px" stroke-dashoffset="0" image-rendering="auto">
  <!--Generated by ySVG 2.6-->
  <defs id="genericDefs"/>
  <g>
    <defs id="defs1">
      <linearGradient x1="797.9194" gradientUnits="userSpaceOnUse" x2="958.7723" y1="34.1592" y2="117.8408" id="linearGradient1" spreadMethod="reflect">
        <stop stop-opacity="1" stop-color="rgb(232,238,247)" offset="0%"/>
        <stop stop-opacity="1" stop-color="rgb(183,201,227)" offset="100%"/>
      </linearGradient>
      <linearGradient x1="661.6926" gradientUnits="userSpaceOnUse" x2="741.6926" y1="282.7018" y2="322.7018" id="linearGradient2" spreadMethod="reflect">
        <stop stop-opacity="1" stop-color="rgb(232,238,247)" offset="0%"/>
        <stop stop-opacity="1" stop-color="rgb(183,201,227)" offset="100%"/>
      </linearGradient>
      <linearGradient x1="485.0393" gradientUnits="userSpaceOnUse" x2="565.0393" y1="385.1699" y2="425.1699" id="linearGradient3" spreadMethod="reflect">
        <stop stop-opacity="1" stop-color="rgb(51,153,102)" offset="0%"/>
        <stop stop-opacity="1" stop-color="rgb(183,201,227)" offset="100%"/>
      </linearGradient>
      <linearGradient x1="802.3656" gradientUnits="userSpaceOnUse" x2="882.3656" y1="385.1699" y2="425.1699" id="linearGradient4" spreadMethod="reflect">
        <stop stop-opacity="1" stop-color="red" offset="0%"/>
        <stop stop-opacity="1" stop-color="rgb(183,201,227)" offset="100%"/>
      </linearGradient>
      <clipPath clipPathUnits="userSpaceOnUse" id="clipPath1">
        <path d="M0 0 L871 0 L871 422 L0 422 L0 0 Z"/>
      </clipPath>
      <clipPath clipPathUnits="userSpaceOnUse" id="clipPath2">
        <path d="M135 19 L1006 19 L1006 441 L135 441 L135 19 Z"/>
      </clipPath>
    </defs>
    <g fill="white" text-rendering="geometricPrecision" shape-rendering="geometricPrecision" transform="translate(-135,-19)" stroke="white">
      <rect x="135" width="871" height="422" y="19" clip-path="url(#clipPath2)" stroke="none"/>
    </g>
    <g text-rendering="geometricPrecision" stroke-miterlimit="1.45" shape-rendering="geometricPrecision" transform="matrix(1,0,0,1,-135,-19)" stroke-linecap="butt">
      <rect fill="none" x="353.6641" width="111" height="30" y="61" clip-path="url(#clipPath2)"/>
      <text x="361.0677" xml:space="preserve" y="80.656" clip-path="url(#clipPath2)" font-family="sans-serif" stroke="none">"otracontraseña"</text>
    </g>
    <g fill="rgb(255,204,0)" text-rendering="geometricPrecision" shape-rendering="geometricPrecision" transform="matrix(1,0,0,1,-135,-19)" stroke="rgb(255,204,0)">
      <path d="M455.3089 137.7018 L594.7697 137.7018 L559.9045 192.7018 L490.1741 192.7018 Z" fill-rule="evenodd" clip-path="url(#clipPath2)" stroke="none"/>
    </g>
    <g text-rendering="geometricPrecision" stroke-miterlimit="1.45" shape-rendering="geometricPrecision" transform="matrix(1,0,0,1,-135,-19)" stroke-linecap="butt">
      <path fill="none" d="M455.3089 137.7018 L594.7697 137.7018 L559.9045 192.7018 L490.1741 192.7018 Z" fill-rule="evenodd" clip-path="url(#clipPath2)"/>
      <text x="486.789" xml:space="preserve" y="169.8578" clip-path="url(#clipPath2)" font-family="sans-serif" stroke="none">Función Hash</text>
      <rect stroke-linecap="round" x="189.1355" y="66.5244" clip-path="url(#clipPath2)" stroke-dashoffset="2" fill="none" width="116.0783" stroke-dasharray="0,4" rx="4" ry="4" height="18.9511"/>
      <text x="205.5047" font-size="10px" y="79.88" clip-path="url(#clipPath2)" font-family="sans-serif" stroke="none" xml:space="preserve">Intento de acceso</text>
    </g>
    <g fill="rgb(153,204,255)" text-rendering="geometricPrecision" shape-rendering="geometricPrecision" transform="matrix(1,0,0,1,-135,-19)" stroke="rgb(153,204,255)">
      <rect x="413.239" width="223.6006" height="30" y="222.7018" clip-path="url(#clipPath2)" stroke="none"/>
    </g>
    <g text-rendering="geometricPrecision" stroke-miterlimit="1.45" shape-rendering="geometricPrecision" transform="matrix(1,0,0,1,-135,-19)" stroke-linecap="butt">
      <rect fill="none" x="413.239" width="223.6006" height="30" y="222.7018" clip-path="url(#clipPath2)"/>
      <text x="426.8006" xml:space="preserve" y="242.3578" clip-path="url(#clipPath2)" font-family="sans-serif" stroke="none">5bf6722He/2SelP246190#452Pw32</text>
      <rect stroke-linecap="round" x="150.6861" y="228.2262" clip-path="url(#clipPath2)" stroke-dashoffset="2" fill="none" width="233.7208" stroke-dasharray="0,4" rx="4" ry="4" height="18.9511"/>
      <text x="163.1565" font-size="10px" y="241.5818" clip-path="url(#clipPath2)" font-family="sans-serif" stroke="none" xml:space="preserve">Resumen criptográfico del intento de acceso</text>
    </g>
    <g fill="url(#linearGradient1)" text-rendering="geometricPrecision" shape-rendering="geometricPrecision" transform="matrix(1,0,0,1,-135,-19)" stroke="url(#linearGradient1)">
      <path d="M797.9194 50.8955 C802.7449 34.1592 953.9467 34.1592 958.7723 50.8955 L958.7723 101.1045 C953.9467 117.8408 802.7449 117.8408 797.9194 101.1045 Z" stroke="none" clip-path="url(#clipPath2)"/>
    </g>
    <g text-rendering="geometricPrecision" stroke-miterlimit="1.45" shape-rendering="geometricPrecision" transform="matrix(1,0,0,1,-135,-19)" stroke-linecap="butt">
      <path fill="none" d="M797.9194 50.8955 C802.7449 34.1592 953.9467 34.1592 958.7723 50.8955 L958.7723 101.1045 C953.9467 117.8408 802.7449 117.8408 797.9194 101.1045 Z" clip-path="url(#clipPath2)"/>
      <path fill="none" d="M958.7723 50.8955 C953.9467 67.6318 802.7449 67.6318 797.9194 50.8955" clip-path="url(#clipPath2)"/>
      <text x="822.3474" xml:space="preserve" y="72.484" clip-path="url(#clipPath2)" font-family="sans-serif" stroke="none">Almacén de hashes </text>
      <text x="835.2775" xml:space="preserve" y="88.8281" clip-path="url(#clipPath2)" font-family="sans-serif" stroke="none">de contraseñas</text>
    </g>
    <g fill="rgb(153,204,255)" text-rendering="geometricPrecision" shape-rendering="geometricPrecision" transform="matrix(1,0,0,1,-135,-19)" stroke="rgb(153,204,255)">
      <rect x="766.5455" width="223.6006" height="30" y="222.7018" clip-path="url(#clipPath2)" stroke="none"/>
    </g>
    <g text-rendering="geometricPrecision" stroke-miterlimit="1.45" shape-rendering="geometricPrecision" transform="matrix(1,0,0,1,-135,-19)" stroke-linecap="butt">
      <rect fill="none" x="766.5455" width="223.6006" height="30" y="222.7018" clip-path="url(#clipPath2)"/>
      <text x="787.0612" xml:space="preserve" y="242.3578" clip-path="url(#clipPath2)" font-family="sans-serif" stroke="none">hasejjkjjk333458488/#2wqedddf</text>
    </g>
    <g fill="url(#linearGradient2)" text-rendering="geometricPrecision" shape-rendering="geometricPrecision" transform="matrix(1,0,0,1,-135,-19)" stroke="url(#linearGradient2)">
      <path d="M701.6926 282.7018 L741.6926 302.7018 L701.6926 322.7018 L661.6926 302.7018 Z" stroke="none" clip-path="url(#clipPath2)"/>
    </g>
    <g text-rendering="geometricPrecision" stroke-miterlimit="1.45" shape-rendering="geometricPrecision" transform="matrix(1,0,0,1,-135,-19)" stroke-linecap="butt">
      <path fill="none" d="M701.6926 282.7018 L741.6926 302.7018 L701.6926 322.7018 L661.6926 302.7018 Z" clip-path="url(#clipPath2)"/>
      <text x="673.8044" xml:space="preserve" y="307.3578" clip-path="url(#clipPath2)" font-family="sans-serif" stroke="none">Coinciden</text>
    </g>
    <g fill="url(#linearGradient3)" text-rendering="geometricPrecision" shape-rendering="geometricPrecision" transform="matrix(1,0,0,1,-135,-19)" stroke="url(#linearGradient3)">
      <path d="M485.0393 390.1699 Q505.0393 400.1699 525.0393 390.1699 Q545.0393 380.1699 565.0393 390.1699 L565.0393 420.1699 Q545.0393 410.1699 525.0393 420.1699 Q505.0393 430.1699 485.0393 420.1699 Z" stroke="none" clip-path="url(#clipPath2)"/>
    </g>
    <g text-rendering="geometricPrecision" stroke-miterlimit="1.45" shape-rendering="geometricPrecision" transform="matrix(1,0,0,1,-135,-19)" stroke-linecap="butt">
      <path fill="none" d="M485.0393 390.1699 Q505.0393 400.1699 525.0393 390.1699 Q545.0393 380.1699 565.0393 390.1699 L565.0393 420.1699 Q545.0393 410.1699 525.0393 420.1699 Q505.0393 430.1699 485.0393 420.1699 Z" clip-path="url(#clipPath2)"/>
      <text x="505.5572" xml:space="preserve" y="409.8259" clip-path="url(#clipPath2)" font-family="sans-serif" stroke="none">Acceso</text>
    </g>
    <g fill="url(#linearGradient4)" text-rendering="geometricPrecision" shape-rendering="geometricPrecision" transform="matrix(1,0,0,1,-135,-19)" stroke="url(#linearGradient4)">
      <path d="M802.3656 390.1699 Q822.3656 400.1699 842.3656 390.1699 Q862.3656 380.1699 882.3656 390.1699 L882.3656 420.1699 Q862.3656 410.1699 842.3656 420.1699 Q822.3656 430.1699 802.3656 420.1699 Z" stroke="none" clip-path="url(#clipPath2)"/>
    </g>
    <g text-rendering="geometricPrecision" stroke-miterlimit="1.45" shape-rendering="geometricPrecision" transform="matrix(1,0,0,1,-135,-19)" stroke-linecap="butt">
      <path fill="none" d="M802.3656 390.1699 Q822.3656 400.1699 842.3656 390.1699 Q862.3656 380.1699 882.3656 390.1699 L882.3656 420.1699 Q862.3656 410.1699 842.3656 420.1699 Q822.3656 430.1699 802.3656 420.1699 Z" clip-path="url(#clipPath2)"/>
      <text x="827.9655" xml:space="preserve" y="409.8259" clip-path="url(#clipPath2)" font-family="sans-serif" stroke="none">Error</text>
    </g>
    <g fill="rgb(255,204,0)" text-rendering="geometricPrecision" shape-rendering="geometricPrecision" transform="matrix(1,0,0,1,-135,-19)" stroke="rgb(255,204,0)">
      <path d="M510.0393 69.7868 L518.8261 61 L531.2525 61 L540.0393 69.7868 L540.0393 82.2132 L531.2525 91 L518.8261 91 L510.0393 82.2132 Z" fill-rule="evenodd" clip-path="url(#clipPath2)" stroke="none"/>
    </g>
    <g text-rendering="geometricPrecision" stroke-miterlimit="1.45" shape-rendering="geometricPrecision" transform="matrix(1,0,0,1,-135,-19)" stroke-linecap="butt">
      <path fill="none" d="M510.0393 69.7868 L518.8261 61 L531.2525 61 L540.0393 69.7868 L540.0393 82.2132 L531.2525 91 L518.8261 91 L510.0393 82.2132 Z" fill-rule="evenodd" clip-path="url(#clipPath2)"/>
      <path fill="none" stroke-dasharray="0,4" d="M353.6641 76 L305.2291 76" stroke-dashoffset="2" clip-path="url(#clipPath2)" stroke-linecap="round"/>
      <path fill="none" d="M525.0393 192.7079 L525.0393 211.7018" clip-path="url(#clipPath2)"/>
      <path d="M525.0393 222.7018 L531.0393 210.7018 L519.0393 210.7018 Z" clip-path="url(#clipPath2)" stroke="none"/>
      <path fill="none" stroke-dasharray="0,4" d="M413.239 237.7018 L384.3922 237.7018" stroke-dashoffset="2" clip-path="url(#clipPath2)" stroke-linecap="round"/>
      <path fill="none" d="M878.3458 113.6225 L878.3458 211.7018" clip-path="url(#clipPath2)"/>
      <path d="M878.3458 222.7018 L884.3458 210.7018 L872.3458 210.7018 Z" clip-path="url(#clipPath2)" stroke="none"/>
      <path fill="none" d="M525.0393 252.7018 L525.0393 302.7018 L650.7127 302.7018" clip-path="url(#clipPath2)"/>
      <path d="M661.7127 302.7018 L649.7127 296.7018 L649.7127 308.7018 Z" clip-path="url(#clipPath2)" stroke="none"/>
      <path fill="none" d="M878.3458 252.7018 L878.3458 302.7018 L752.6724 302.7018" clip-path="url(#clipPath2)"/>
      <path d="M741.6724 302.7018 L753.6724 308.7018 L753.6724 296.7018 Z" clip-path="url(#clipPath2)" stroke="none"/>
      <path fill="none" d="M683.1906 313.4339 L566.1769 381.3079" clip-path="url(#clipPath2)"/>
      <path d="M556.6618 386.8271 L570.0524 385.9962 L564.0314 375.6161 Z" clip-path="url(#clipPath2)" stroke="none"/>
      <text x="608.0379" xml:space="preserve" y="358.5919" clip-path="url(#clipPath2)" font-family="sans-serif" stroke="none">SI</text>
      <path fill="none" d="M718.006 314.5847 L819.1742 388.2769" clip-path="url(#clipPath2)"/>
      <path d="M828.0655 394.7534 L821.8986 382.8383 L814.8333 392.5379 Z" clip-path="url(#clipPath2)" stroke="none"/>
      <text x="762.783" xml:space="preserve" y="358.5919" clip-path="url(#clipPath2)" font-family="sans-serif" stroke="none">NO</text>
      <path fill="none" d="M464.6641 76 L499.0339 76" clip-path="url(#clipPath2)"/>
      <path d="M510.0339 76 L498.0339 70 L498.0339 82 Z" clip-path="url(#clipPath2)" stroke="none"/>
      <path fill="none" d="M525.0393 91.0265 L525.0393 126.712" clip-path="url(#clipPath2)"/>
      <path d="M525.0393 137.712 L531.0393 125.712 L519.0393 125.712 Z" clip-path="url(#clipPath2)" stroke="none"/>
    </g>
  </g>
</svg>
