<?xml version="1.0" encoding="UTF-8" standalone="no"?>
<!-- Created with Inkscape (http://www.inkscape.org/) -->
<svg
   xmlns:dc="http://purl.org/dc/elements/1.1/"
   xmlns:cc="http://web.resource.org/cc/"
   xmlns:rdf="http://www.w3.org/1999/02/22-rdf-syntax-ns#"
   xmlns:svg="http://www.w3.org/2000/svg"
   xmlns="http://www.w3.org/2000/svg"
   xmlns:xlink="http://www.w3.org/1999/xlink"
   xmlns:sodipodi="http://sodipodi.sourceforge.net/DTD/sodipodi-0.dtd"
   xmlns:inkscape="http://www.inkscape.org/namespaces/inkscape"
   width="345"
   height="330.51001"
   id="svg2"
   sodipodi:version="0.32"
   inkscape:version="0.45"
   sodipodi:docbase="/home/nick/Desktop"
   sodipodi:docname="Nonce-uml.svg"
   inkscape:output_extension="org.inkscape.output.svg.inkscape"
   version="1.0"
   sodipodi:modified="true">
  <defs
     id="defs4">
    <marker
       inkscape:stockid="TriangleOutL"
       orient="auto"
       refY="0"
       refX="0"
       id="TriangleOutL"
       style="overflow:visible">
      <path
         id="path8217"
         d="M 5.77,0 L -2.88,5 L -2.88,-5 L 5.77,0 z "
         style="fill-rule:evenodd;stroke:#000000;stroke-width:1pt;marker-start:none"
         transform="scale(0.8,0.8)" />
    </marker>
  </defs>
  <sodipodi:namedview
     id="base"
     pagecolor="#ffffff"
     bordercolor="#666666"
     borderopacity="1.0"
     gridtolerance="10000"
     guidetolerance="10"
     objecttolerance="10"
     inkscape:pageopacity="0.0"
     inkscape:pageshadow="2"
     inkscape:zoom="3.959798"
     inkscape:cx="176.39324"
     inkscape:cy="110.45852"
     inkscape:document-units="px"
     inkscape:current-layer="layer1"
     showgrid="false"
     inkscape:window-width="1280"
     inkscape:window-height="954"
     inkscape:window-x="0"
     inkscape:window-y="24"
     width="345px"
     height="330.51px" />
  <metadata
     id="metadata7">
    <rdf:RDF>
      <cc:Work
         rdf:about="">
        <dc:format>image/svg+xml</dc:format>
        <dc:type
           rdf:resource="http://purl.org/dc/dcmitype/StillImage" />
      </cc:Work>
    </rdf:RDF>
  </metadata>
  <g
     inkscape:label="Layer 1"
     inkscape:groupmode="layer"
     id="layer1"
     transform="translate(-25.000244,-27.067873)">
    <rect
       style="opacity:1;fill:none;fill-opacity:1;fill-rule:nonzero;stroke:#000000;stroke-width:0.99999988;stroke-linecap:round;stroke-linejoin:round;stroke-miterlimit:4;stroke-dasharray:none;stroke-opacity:1"
       id="rect2160"
       width="78.999748"
       height="29"
       x="29.071672"
       y="31.853588"
       rx="0.090846322"
       ry="0.090846315" />
    <path
       style="text-align:center;text-anchor:middle"
       d="M 58.378182,42.396552 L 58.378182,43.644599 C 57.979738,43.273513 57.553957,42.996169 57.100839,42.812568 C 56.651614,42.628982 56.173099,42.537185 55.665292,42.537177 C 54.665288,42.537185 53.899664,42.843825 53.368417,43.457099 C 52.837165,44.06648 52.57154,44.949292 52.571542,46.105537 C 52.57154,47.257884 52.837165,48.140695 53.368417,48.753974 C 53.899664,49.36335 54.665288,49.668037 55.665292,49.668037 C 56.173099,49.668037 56.651614,49.576241 57.100839,49.392646 C 57.553957,49.209053 57.979738,48.93171 58.378182,48.560615 L 58.378182,49.796943 C 57.964113,50.078193 57.52466,50.28913 57.059823,50.429755 C 56.59888,50.57038 56.110599,50.640693 55.594979,50.640693 C 54.270757,50.640693 53.227789,50.236396 52.466073,49.427802 C 51.704353,48.615304 51.323494,47.507883 51.323495,46.105537 C 51.323494,44.699292 51.704353,43.591872 52.466073,42.783271 C 53.227789,41.970779 54.270757,41.56453 55.594979,41.564521 C 56.118411,41.56453 56.610598,41.634842 57.071542,41.775458 C 57.536379,41.912186 57.971925,42.119217 58.378182,42.396552 M 60.171151,41.353583 L 61.249276,41.353583 L 61.249276,50.470771 L 60.171151,50.470771 L 60.171151,41.353583 M 63.499276,43.908271 L 64.577401,43.908271 L 64.577401,50.470771 L 63.499276,50.470771 L 63.499276,43.908271 M 63.499276,41.353583 L 64.577401,41.353583 L 64.577401,42.718818 L 63.499276,42.718818 L 63.499276,41.353583 M 72.440682,46.91999 L 72.440682,47.447333 L 67.483651,47.447333 C 67.530524,48.189523 67.75318,48.755929 68.15162,49.146552 C 68.553961,49.533272 69.112554,49.726631 69.827401,49.72663 C 70.241459,49.726631 70.641849,49.67585 71.028573,49.574287 C 71.419192,49.472725 71.805911,49.320381 72.188729,49.117255 L 72.188729,50.136787 C 71.802004,50.300849 71.40552,50.425849 70.999276,50.511787 C 70.593021,50.597724 70.180912,50.640693 69.762948,50.640693 C 68.71607,50.640693 67.885993,50.336005 67.272714,49.72663 C 66.663338,49.117257 66.35865,48.293039 66.358651,47.253974 C 66.35865,46.17976 66.647713,45.328198 67.225839,44.699287 C 67.807868,44.06648 68.59107,43.750075 69.575448,43.750068 C 70.458256,43.750075 71.155521,44.03523 71.667245,44.605537 C 72.182863,45.171948 72.440676,45.943432 72.440682,46.91999 M 71.362557,46.603583 C 71.354739,46.013744 71.188724,45.543041 70.86451,45.191474 C 70.544193,44.839917 70.118412,44.664136 69.587167,44.66413 C 68.985601,44.664136 68.50318,44.834058 68.139901,45.173896 C 67.780524,45.513745 67.573493,45.99226 67.518807,46.609443 L 71.362557,46.603583 M 79.665292,46.509833 L 79.665292,50.470771 L 78.587167,50.470771 L 78.587167,46.54499 C 78.587161,45.9239 78.466068,45.459057 78.223886,45.150458 C 77.981693,44.84187 77.618412,44.687574 77.134042,44.687568 C 76.552007,44.687574 76.093023,44.87312 75.757089,45.244208 C 75.421149,45.615307 75.25318,46.121166 75.253182,46.761787 L 75.253182,50.470771 L 74.169198,50.470771 L 74.169198,43.908271 L 75.253182,43.908271 L 75.253182,44.927802 C 75.510992,44.533277 75.813727,44.238355 76.161386,44.043037 C 76.512945,43.847731 76.917241,43.750075 77.374276,43.750068 C 78.128177,43.750075 78.698489,43.984449 79.085214,44.453193 C 79.471926,44.918042 79.665285,45.603588 79.665292,46.509833 M 82.893807,42.04499 L 82.893807,43.908271 L 85.11451,43.908271 L 85.11451,44.746162 L 82.893807,44.746162 L 82.893807,48.308662 C 82.893805,48.843819 82.966071,49.187569 83.110604,49.339912 C 83.259039,49.492256 83.557867,49.568428 84.007089,49.568427 L 85.11451,49.568427 L 85.11451,50.470771 L 84.007089,50.470771 C 83.175055,50.470771 82.600837,50.316474 82.284432,50.00788 C 81.968025,49.695381 81.809822,49.128975 81.809823,48.308662 L 81.809823,44.746162 L 81.018807,44.746162 L 81.018807,43.908271 L 81.809823,43.908271 L 81.809823,42.04499 L 82.893807,42.04499"
       id="flowRoot3133" />
    <rect
       style="opacity:1;fill:none;fill-opacity:1;fill-rule:nonzero;stroke:#000000;stroke-width:0.99999982;stroke-linecap:round;stroke-linejoin:round;stroke-miterlimit:4;stroke-dasharray:none;stroke-opacity:1"
       id="rect4110"
       width="78.999969"
       height="29"
       x="286.07147"
       y="31.853588"
       rx="0.090846285"
       ry="0.090846315" />
    <path
       style="text-align:center;text-anchor:middle"
       d="M 312.20239,42.722724 L 312.20239,43.877021 C 311.75316,43.662185 311.32934,43.502029 310.93091,43.396553 C 310.53246,43.291092 310.1477,43.238357 309.77661,43.238349 C 309.13207,43.238357 308.63403,43.363357 308.28247,43.613349 C 307.93481,43.863357 307.76098,44.218825 307.76098,44.679756 C 307.76098,45.066481 307.87622,45.359449 308.10669,45.558662 C 308.34106,45.75398 308.78246,45.912183 309.43091,46.033271 L 310.14575,46.179756 C 311.02856,46.347729 311.67895,46.644604 312.09692,47.070381 C 312.51879,47.492259 312.72973,48.058665 312.72973,48.769599 C 312.72973,49.617257 312.44457,50.259835 311.87426,50.697334 C 311.30785,51.134834 310.47582,51.353584 309.37817,51.353584 C 308.96411,51.353584 308.5227,51.306709 308.05395,51.212959 C 307.58911,51.119209 307.10669,50.980537 306.60669,50.796943 L 306.60669,49.578193 C 307.08715,49.847726 307.55786,50.050851 308.0188,50.187568 C 308.47973,50.324288 308.93286,50.392647 309.37817,50.392646 C 310.05395,50.392647 310.57543,50.259835 310.94262,49.994209 C 311.30981,49.728585 311.4934,49.349679 311.49341,48.85749 C 311.4934,48.427805 311.36059,48.091868 311.09497,47.849678 C 310.83324,47.607494 310.4016,47.425853 309.80005,47.304756 L 309.07934,47.164131 C 308.19653,46.988354 307.55786,46.712963 307.16333,46.337959 C 306.76879,45.962964 306.57153,45.44148 306.57153,44.773506 C 306.57153,44.000075 306.84301,43.390701 307.38598,42.945381 C 307.93286,42.500077 308.68481,42.277421 309.64184,42.277412 C 310.05199,42.277421 310.46996,42.31453 310.89575,42.38874 C 311.32152,42.462968 311.75707,42.574296 312.20239,42.722724 M 320.14184,47.632881 L 320.14184,48.160224 L 315.18481,48.160224 C 315.23168,48.902414 315.45434,49.46882 315.85278,49.859443 C 316.25512,50.246163 316.81371,50.439522 317.52856,50.439521 C 317.94262,50.439522 318.34301,50.388741 318.72973,50.287178 C 319.12035,50.185616 319.50707,50.033272 319.88989,49.830146 L 319.88989,50.849678 C 319.50316,51.01374 319.10668,51.13874 318.70044,51.224678 C 318.29418,51.310615 317.88207,51.353584 317.46411,51.353584 C 316.41723,51.353584 315.58715,51.048896 314.97387,50.439521 C 314.3645,49.830148 314.05981,49.00593 314.05981,47.966865 C 314.05981,46.892651 314.34887,46.041089 314.927,45.412178 C 315.50903,44.779371 316.29223,44.462966 317.27661,44.462959 C 318.15942,44.462966 318.85668,44.748121 319.36841,45.318428 C 319.88402,45.884839 320.14184,46.656323 320.14184,47.632881 M 319.06372,47.316474 C 319.0559,46.726635 318.88988,46.255932 318.56567,45.904365 C 318.24535,45.552808 317.81957,45.377027 317.28833,45.377021 C 316.68676,45.377027 316.20434,45.546949 315.84106,45.886787 C 315.48168,46.226636 315.27465,46.705151 315.21997,47.322334 L 319.06372,47.316474 M 325.71411,45.628974 C 325.59301,45.558668 325.4602,45.507886 325.31567,45.476631 C 325.17504,45.44148 325.01879,45.423902 324.84692,45.423896 C 324.23754,45.423902 323.76879,45.623121 323.44067,46.021553 C 323.11645,46.416089 322.95434,46.984447 322.95434,47.726631 L 322.95434,51.183662 L 321.87036,51.183662 L 321.87036,44.621162 L 322.95434,44.621162 L 322.95434,45.640693 C 323.1809,45.242262 323.47582,44.94734 323.83911,44.755928 C 324.20239,44.560622 324.64379,44.462966 325.16333,44.462959 C 325.23754,44.462966 325.31957,44.468825 325.40942,44.480537 C 325.49926,44.488356 325.59887,44.502028 325.70825,44.521553 L 325.71411,45.628974 M 326.08325,44.621162 L 327.22583,44.621162 L 329.27661,50.128974 L 331.32739,44.621162 L 332.46997,44.621162 L 330.00903,51.183662 L 328.54419,51.183662 L 326.08325,44.621162 M 339.57153,47.632881 L 339.57153,48.160224 L 334.6145,48.160224 C 334.66137,48.902414 334.88403,49.46882 335.28247,49.859443 C 335.68481,50.246163 336.2434,50.439522 336.95825,50.439521 C 337.37231,50.439522 337.7727,50.388741 338.15942,50.287178 C 338.55004,50.185616 338.93676,50.033272 339.31958,49.830146 L 339.31958,50.849678 C 338.93285,51.01374 338.53637,51.13874 338.13012,51.224678 C 337.72387,51.310615 337.31176,51.353584 336.8938,51.353584 C 335.84692,51.353584 335.01684,51.048896 334.40356,50.439521 C 333.79419,49.830148 333.4895,49.00593 333.4895,47.966865 C 333.4895,46.892651 333.77856,46.041089 334.35669,45.412178 C 334.93872,44.779371 335.72192,44.462966 336.7063,44.462959 C 337.5891,44.462966 338.28637,44.748121 338.79809,45.318428 C 339.31371,45.884839 339.57152,46.656323 339.57153,47.632881 M 338.49341,47.316474 C 338.48559,46.726635 338.31957,46.255932 337.99536,45.904365 C 337.67504,45.552808 337.24926,45.377027 336.71801,45.377021 C 336.11645,45.377027 335.63403,45.546949 335.27075,45.886787 C 334.91137,46.226636 334.70434,46.705151 334.64966,47.322334 L 338.49341,47.316474 M 345.1438,45.628974 C 345.0227,45.558668 344.88988,45.507886 344.74536,45.476631 C 344.60473,45.44148 344.44848,45.423902 344.27661,45.423896 C 343.66723,45.423902 343.19848,45.623121 342.87036,46.021553 C 342.54614,46.416089 342.38403,46.984447 342.38403,47.726631 L 342.38403,51.183662 L 341.30005,51.183662 L 341.30005,44.621162 L 342.38403,44.621162 L 342.38403,45.640693 C 342.61059,45.242262 342.90551,44.94734 343.2688,44.755928 C 343.63207,44.560622 344.07348,44.462966 344.59301,44.462959 C 344.66723,44.462966 344.74926,44.468825 344.83911,44.480537 C 344.92895,44.488356 345.02856,44.502028 345.13794,44.521553 L 345.1438,45.628974"
       id="flowRoot4112" />
    <path
       style="fill:none;fill-opacity:0.75;fill-rule:evenodd;stroke:#000000;stroke-width:1;stroke-linecap:butt;stroke-linejoin:miter;stroke-miterlimit:4;stroke-dasharray:1.99999997, 1.99999997;stroke-dashoffset:0;stroke-opacity:1;display:inline"
       d="M 68.571537,61.35358 L 68.726377,352.50379"
       id="path4124"
       inkscape:connector-type="polyline" />
    <use
       x="0"
       y="0"
       xlink:href="#path4124"
       id="use6182"
       transform="translate(256.34516,0.8611366)"
       width="744.09448"
       height="1052.3622" />
    <g
       id="g2202"
       transform="matrix(1.1922979,0,0,1,-3.1464825,8.9914048)">
      <path
         style="fill:#000000;fill-opacity:1;fill-rule:evenodd;stroke:none;stroke-width:1;stroke-linecap:butt;stroke-linejoin:miter;stroke-miterlimit:4;stroke-dashoffset:0;stroke-opacity:1;display:inline"
         d="M 268.40625,102.34375 L 60.9375,102.53125 L 60.9375,103.53125 L 268.40625,103.34375 L 268.40625,102.34375 z "
         id="path6184" />
      <path
         style="fill-rule:evenodd;stroke:#000000;stroke-width:0.73265176pt;marker-start:none"
         d="M 273.0226,102.85348 L 266.10625,106.85979 L 266.09896,98.859791 L 273.0226,102.85348 z "
         id="path2208" />
    </g>
    <path
       style="font-family:Bitstream Vera Sans Mono"
       d="M 165.5911,104.39791 C 165.5911,103.58932 165.45829,102.97604 165.19267,102.55807 C 164.93094,102.1362 164.54813,101.92526 164.04423,101.92525 C 163.51688,101.92526 163.11454,102.1362 162.8372,102.55807 C 162.55985,102.97604 162.42118,103.58932 162.42118,104.39791 C 162.42118,105.2065 162.55985,105.82369 162.8372,106.24947 C 163.11844,106.67134 163.52469,106.88228 164.05595,106.88228 C 164.55204,106.88228 164.93094,106.66939 165.19267,106.24361 C 165.45829,105.81783 165.5911,105.2026 165.5911,104.39791 M 166.66923,107.31002 C 166.66922,108.29439 166.4368,109.04048 165.97196,109.5483 C 165.50711,110.05611 164.82352,110.31001 163.92118,110.31002 C 163.6243,110.31001 163.31376,110.28267 162.98954,110.22798 C 162.66532,110.17329 162.3411,110.09322 162.01689,109.98775 L 162.01689,108.92135 C 162.3997,109.10103 162.74735,109.23384 163.05985,109.31978 C 163.37235,109.40572 163.65946,109.44869 163.92118,109.44869 C 164.50321,109.44869 164.92704,109.29048 165.19267,108.97408 C 165.45829,108.65767 165.5911,108.15572 165.5911,107.46822 L 165.5911,107.42134 L 165.5911,106.68892 C 165.41922,107.05611 165.18485,107.32955 164.88798,107.50923 C 164.5911,107.68892 164.22977,107.77877 163.80399,107.77877 C 163.03837,107.77877 162.42704,107.47213 161.97001,106.85884 C 161.51298,106.24556 161.28446,105.42525 161.28446,104.39791 C 161.28446,103.36666 161.51298,102.5444 161.97001,101.93111 C 162.42704,101.31784 163.03837,101.0112 163.80399,101.01119 C 164.22587,101.0112 164.58329,101.09518 164.87626,101.26314 C 165.16922,101.43112 165.40751,101.69088 165.5911,102.04244 L 165.5911,101.19283 L 166.66923,101.19283 L 166.66923,107.31002 M 174.29813,104.18111 L 174.29813,104.70845 L 169.62821,104.70845 L 169.62821,104.74361 C 169.62821,105.45846 169.81376,106.01119 170.18485,106.40181 C 170.55985,106.79244 171.08719,106.98775 171.76689,106.98775 C 172.11063,106.98775 172.47001,106.93306 172.84501,106.82369 C 173.22,106.71431 173.62039,106.5483 174.04618,106.32564 L 174.04618,107.39791 C 173.63602,107.56587 173.23954,107.69087 172.85673,107.77291 C 172.47782,107.85884 172.11063,107.90181 171.75517,107.90181 C 170.73563,107.90181 169.93876,107.59712 169.36454,106.98775 C 168.79032,106.37447 168.50321,105.53072 168.50321,104.4565 C 168.50321,103.40963 168.78446,102.5737 169.34696,101.94869 C 169.90946,101.3237 170.65946,101.0112 171.59696,101.01119 C 172.4329,101.0112 173.0911,101.2944 173.57157,101.8608 C 174.05594,102.42721 174.29813,103.20065 174.29813,104.18111 M 173.22001,103.86471 C 173.20438,103.2319 173.05399,102.75143 172.76884,102.4233 C 172.48758,102.09128 172.08133,101.92526 171.55009,101.92525 C 171.03055,101.92526 170.60282,102.09713 170.26689,102.44088 C 169.93095,102.78463 169.73173,103.2612 169.66923,103.87057 L 173.22001,103.86471 M 178.59892,99.306113 L 178.59892,101.16939 L 181.04813,101.16939 L 181.04813,102.00729 L 178.59892,102.00729 L 178.59892,105.56978 C 178.59891,106.05416 178.69071,106.39205 178.87431,106.58345 C 179.0579,106.77486 179.37821,106.87056 179.83524,106.87056 L 181.04813,106.87056 L 181.04813,107.73189 L 179.72978,107.73189 C 178.92118,107.73189 178.35087,107.56978 178.01884,107.24556 C 177.6868,106.92134 177.52079,106.36275 177.52079,105.56978 L 177.52079,102.00729 L 175.76884,102.00729 L 175.76884,101.16939 L 177.52079,101.16939 L 177.52079,99.306113 L 178.59892,99.306113 M 183.03446,98.983847 L 184.53446,98.983847 L 187.48759,106.18502 L 187.48759,98.983847 L 188.63017,98.983847 L 188.63017,107.73189 L 187.13017,107.73189 L 184.17704,100.53072 L 184.17704,107.73189 L 183.03446,107.73189 L 183.03446,98.983847 M 193.04813,101.92525 C 192.50126,101.92526 192.08719,102.13815 191.80595,102.56393 C 191.5247,102.98971 191.38407,103.62057 191.38407,104.4565 C 191.38407,105.28853 191.5247,105.91939 191.80595,106.34908 C 192.08719,106.77486 192.50126,106.98775 193.04813,106.98775 C 193.59891,106.98775 194.01493,106.77486 194.29618,106.34908 C 194.57743,105.91939 194.71805,105.28853 194.71806,104.4565 C 194.71805,103.62057 194.57743,102.98971 194.29618,102.56393 C 194.01493,102.13815 193.59891,101.92526 193.04813,101.92525 M 193.04813,101.01119 C 193.95829,101.0112 194.6536,101.30612 195.13407,101.89596 C 195.61844,102.48581 195.86063,103.33932 195.86063,104.4565 C 195.86063,105.5776 195.62039,106.43306 195.13993,107.02291 C 194.65946,107.60884 193.96219,107.90181 193.04813,107.90181 C 192.13798,107.90181 191.44266,107.60884 190.9622,107.02291 C 190.48173,106.43306 190.24149,105.5776 190.24149,104.4565 C 190.24149,103.33932 190.48173,102.48581 190.9622,101.89596 C 191.44266,101.30612 192.13798,101.0112 193.04813,101.01119 M 202.81571,103.66549 L 202.81571,107.73189 L 201.73173,107.73189 L 201.73173,103.66549 C 201.73172,103.07565 201.62821,102.64206 201.42118,102.36471 C 201.21415,102.08737 200.88993,101.9487 200.44853,101.94869 C 199.94462,101.9487 199.55594,102.12838 199.28251,102.48775 C 199.01298,102.84323 198.87821,103.35495 198.87821,104.02291 L 198.87821,107.73189 L 197.80009,107.73189 L 197.80009,101.16939 L 198.87821,101.16939 L 198.87821,102.15377 C 199.06962,101.77878 199.32938,101.49557 199.65751,101.30416 C 199.98563,101.10885 200.3743,101.0112 200.82353,101.01119 C 201.49149,101.0112 201.98954,101.2319 202.31767,101.6733 C 202.64969,102.11081 202.81571,102.77487 202.81571,103.66549 M 210.09306,107.39791 C 209.80399,107.56587 209.50516,107.69087 209.19657,107.77291 C 208.89188,107.85884 208.57938,107.90181 208.25907,107.90181 C 207.24344,107.90181 206.44852,107.59712 205.87431,106.98775 C 205.30399,106.37838 205.01884,105.53463 205.01884,104.4565 C 205.01884,103.37838 205.30399,102.53463 205.87431,101.92525 C 206.44852,101.31589 207.24344,101.0112 208.25907,101.01119 C 208.57547,101.0112 208.88407,101.05221 209.18485,101.13424 C 209.48563,101.21628 209.78836,101.34323 210.09306,101.5151 L 210.09306,102.64596 C 209.80789,102.39206 209.52079,102.20846 209.23173,102.09518 C 208.94657,101.9819 208.62235,101.92526 208.25907,101.92525 C 207.58329,101.92526 207.06376,102.14401 206.70048,102.5815 C 206.3372,103.01901 206.15555,103.64401 206.15556,104.4565 C 206.15555,105.2651 206.3372,105.8901 206.70048,106.3315 C 207.06766,106.769 207.58719,106.98775 208.25907,106.98775 C 208.63407,106.98775 208.97,106.93111 209.26689,106.81783 C 209.56375,106.70064 209.83914,106.52095 210.09306,106.27877 L 210.09306,107.39791 M 217.61063,104.18111 L 217.61063,104.70845 L 212.94071,104.70845 L 212.94071,104.74361 C 212.94071,105.45846 213.12626,106.01119 213.49735,106.40181 C 213.87235,106.79244 214.39969,106.98775 215.07939,106.98775 C 215.42313,106.98775 215.78251,106.93306 216.15751,106.82369 C 216.5325,106.71431 216.93289,106.5483 217.35868,106.32564 L 217.35868,107.39791 C 216.94852,107.56587 216.55204,107.69087 216.16923,107.77291 C 215.79032,107.85884 215.42313,107.90181 215.06767,107.90181 C 214.04813,107.90181 213.25126,107.59712 212.67704,106.98775 C 212.10282,106.37447 211.81571,105.53072 211.81571,104.4565 C 211.81571,103.40963 212.09696,102.5737 212.65946,101.94869 C 213.22196,101.3237 213.97196,101.0112 214.90946,101.01119 C 215.7454,101.0112 216.4036,101.2944 216.88407,101.8608 C 217.36844,102.42721 217.61063,103.20065 217.61063,104.18111 M 216.53251,103.86471 C 216.51688,103.2319 216.36649,102.75143 216.08134,102.4233 C 215.80008,102.09128 215.39383,101.92526 214.86259,101.92525 C 214.34305,101.92526 213.91532,102.09713 213.57939,102.44088 C 213.24345,102.78463 213.04423,103.2612 212.98173,103.87057 L 216.53251,103.86471 M 223.49931,98.626425 C 222.97977,99.517058 222.5911,100.40573 222.33329,101.29244 C 222.07938,102.17526 221.95243,103.06588 221.95243,103.96432 C 221.95243,104.85885 222.07938,105.74947 222.33329,106.63619 C 222.5911,107.52291 222.97977,108.41548 223.49931,109.31392 L 222.56181,109.31392 C 221.97196,108.38423 221.53251,107.47994 221.24345,106.60103 C 220.95438,105.71822 220.80985,104.83932 220.80985,103.96432 C 220.80985,103.09323 220.95438,102.21627 221.24345,101.33346 C 221.53251,100.45065 221.97196,99.548308 222.56181,98.626425 L 223.49931,98.626425 M 227.57157,98.626425 L 228.50907,98.626425 C 229.09891,99.548308 229.53837,100.45065 229.82743,101.33346 C 230.11649,102.21627 230.26102,103.09323 230.26103,103.96432 C 230.26102,104.84322 230.11649,105.72408 229.82743,106.60689 C 229.53837,107.4897 229.09891,108.39205 228.50907,109.31392 L 227.57157,109.31392 C 228.0911,108.40767 228.47782,107.51119 228.73173,106.62447 C 228.98954,105.73775 229.11844,104.85103 229.11845,103.96432 C 229.11844,103.0737 228.98954,102.18502 228.73173,101.2983 C 228.47782,100.41159 228.0911,99.520965 227.57157,98.626425"
       id="flowRoot9291" />
    <g
       id="g2226"
       transform="matrix(1.1982399,0,0,1,-3.5085736,8.9914048)">
      <path
         style="fill:#000000;fill-opacity:1;fill-rule:evenodd;stroke:none;stroke-width:1;stroke-linecap:butt;stroke-linejoin:miter;stroke-miterlimit:4;stroke-dasharray:4, 4;stroke-dashoffset:0;stroke-opacity:1;display:inline"
         d="M 69.3125,162.375 L 73.3125,162.375 L 73.3125,161.375 L 69.3125,161.375 L 69.3125,162.375 z M 77.3125,162.375 L 81.3125,162.375 L 81.3125,161.375 L 77.3125,161.375 L 77.3125,162.375 z M 85.3125,162.375 L 89.3125,162.375 L 89.3125,161.375 L 85.3125,161.375 L 85.3125,162.375 z M 93.3125,162.375 L 97.3125,162.375 L 97.3125,161.375 L 93.3125,161.375 L 93.3125,162.375 z M 101.3125,162.375 L 105.3125,162.40625 L 105.3125,161.40625 L 101.3125,161.375 L 101.3125,162.375 z M 109.3125,162.40625 L 113.3125,162.40625 L 113.3125,161.40625 L 109.3125,161.40625 L 109.3125,162.40625 z M 117.3125,162.40625 L 121.3125,162.40625 L 121.3125,161.40625 L 117.3125,161.40625 L 117.3125,162.40625 z M 125.3125,162.40625 L 129.3125,162.40625 L 129.3125,161.40625 L 125.3125,161.40625 L 125.3125,162.40625 z M 133.3125,162.40625 L 137.3125,162.4375 L 137.3125,161.4375 L 133.3125,161.40625 L 133.3125,162.40625 z M 141.3125,162.4375 L 145.3125,162.4375 L 145.3125,161.4375 L 141.3125,161.4375 L 141.3125,162.4375 z M 149.3125,162.4375 L 153.3125,162.4375 L 153.3125,161.4375 L 149.3125,161.4375 L 149.3125,162.4375 z M 157.3125,162.4375 L 161.3125,162.4375 L 161.3125,161.4375 L 157.3125,161.4375 L 157.3125,162.4375 z M 165.3125,162.4375 L 169.3125,162.4375 L 169.3125,161.4375 L 165.3125,161.4375 L 165.3125,162.4375 z M 173.3125,162.46875 L 177.3125,162.46875 L 177.3125,161.46875 L 173.3125,161.46875 L 173.3125,162.46875 z M 181.3125,162.46875 L 185.3125,162.46875 L 185.3125,161.46875 L 181.3125,161.46875 L 181.3125,162.46875 z M 189.3125,162.46875 L 193.3125,162.46875 L 193.3125,161.46875 L 189.3125,161.46875 L 189.3125,162.46875 z M 197.3125,162.46875 L 201.3125,162.46875 L 201.3125,161.46875 L 197.3125,161.46875 L 197.3125,162.46875 z M 205.3125,162.5 L 209.3125,162.5 L 209.3125,161.5 L 205.3125,161.5 L 205.3125,162.5 z M 213.3125,162.5 L 217.3125,162.5 L 217.3125,161.5 L 213.3125,161.5 L 213.3125,162.5 z M 221.3125,162.5 L 225.3125,162.5 L 225.3125,161.5 L 221.3125,161.5 L 221.3125,162.5 z M 229.3125,162.5 L 233.3125,162.5 L 233.3125,161.5 L 229.3125,161.5 L 229.3125,162.5 z M 237.3125,162.5 L 241.3125,162.53125 L 241.3125,161.53125 L 237.3125,161.5 L 237.3125,162.5 z M 245.3125,162.53125 L 249.3125,162.53125 L 249.3125,161.53125 L 245.3125,161.53125 L 245.3125,162.53125 z M 253.3125,162.53125 L 257.3125,162.53125 L 257.3125,161.53125 L 253.3125,161.53125 L 253.3125,162.53125 z M 261.3125,162.53125 L 265.3125,162.53125 L 265.3125,161.53125 L 261.3125,161.53125 L 261.3125,162.53125 z M 269.3125,162.53125 L 273.3125,162.5625 L 273.3125,161.5625 L 269.3125,161.53125 L 269.3125,162.53125 z "
         id="path9299" />
      <path
         style="fill-rule:evenodd;stroke:#000000;stroke-width:0.73083291pt;marker-start:none"
         d="M 61.796846,161.85397 L 68.720495,157.86028 L 68.713191,165.86028 L 61.796846,161.85397 z "
         id="path2232" />
    </g>
    <g
       id="g2218"
       transform="matrix(1.1956097,0,0,1,-3.3727457,8.9914048)">
      <path
         style="fill:#000000;fill-opacity:1;fill-rule:evenodd;stroke:none;stroke-width:1;stroke-linecap:butt;stroke-linejoin:miter;stroke-miterlimit:4;stroke-dasharray:none;stroke-dashoffset:0;stroke-opacity:1;display:inline"
         d="M 267.75,245.625 L 61.0625,245.8125 L 61.0625,246.8125 L 267.75,246.625 L 267.75,245.625 z "
         id="path9301" />
      <path
         style="fill-rule:evenodd;stroke:#000000;stroke-width:0.73163633pt;marker-start:none"
         d="M 272.35449,246.1065 L 265.43815,250.11282 L 265.43084,242.11283 L 272.35449,246.1065 z "
         id="path2224" />
    </g>
    <path
       style="font-family:Bitstream Vera Sans Mono"
       d="M 183.66434,164.39009 L 183.66434,168.4565 L 182.58036,168.4565 L 182.58036,164.39009 C 182.58035,163.80026 182.47684,163.36666 182.26981,163.08931 C 182.06278,162.81197 181.73856,162.6733 181.29716,162.6733 C 180.79325,162.6733 180.40457,162.85299 180.13114,163.21236 C 179.86161,163.56783 179.72684,164.07955 179.72684,164.74752 L 179.72684,168.4565 L 178.64872,168.4565 L 178.64872,161.894 L 179.72684,161.894 L 179.72684,162.87838 C 179.91825,162.50338 180.17801,162.22018 180.50614,162.02877 C 180.83426,161.83346 181.22293,161.7358 181.67216,161.7358 C 182.34012,161.7358 182.83817,161.95651 183.1663,162.39791 C 183.49832,162.83541 183.66434,163.49947 183.66434,164.39009 M 188.33427,162.64986 C 187.78739,162.64987 187.37332,162.86276 187.09208,163.28853 C 186.81083,163.71432 186.6702,164.34518 186.6702,165.18111 C 186.6702,166.01314 186.81083,166.644 187.09208,167.07369 C 187.37332,167.49947 187.78739,167.71236 188.33427,167.71236 C 188.88504,167.71236 189.30106,167.49947 189.58231,167.07369 C 189.86356,166.644 190.00418,166.01314 190.00419,165.18111 C 190.00418,164.34518 189.86356,163.71432 189.58231,163.28853 C 189.30106,162.86276 188.88504,162.64987 188.33427,162.64986 M 188.33427,161.7358 C 189.24442,161.7358 189.93973,162.03073 190.4202,162.62056 C 190.90457,163.21041 191.14676,164.06393 191.14677,165.18111 C 191.14676,166.30221 190.90652,167.15767 190.42606,167.74752 C 189.94559,168.33345 189.24832,168.62642 188.33427,168.62642 C 187.42411,168.62642 186.72879,168.33345 186.24833,167.74752 C 185.76786,167.15767 185.52762,166.30221 185.52762,165.18111 C 185.52762,164.06393 185.76786,163.21041 186.24833,162.62056 C 186.72879,162.03073 187.42411,161.7358 188.33427,161.7358 M 198.10184,164.39009 L 198.10184,168.4565 L 197.01786,168.4565 L 197.01786,164.39009 C 197.01785,163.80026 196.91434,163.36666 196.70731,163.08931 C 196.50028,162.81197 196.17606,162.6733 195.73466,162.6733 C 195.23075,162.6733 194.84207,162.85299 194.56864,163.21236 C 194.29911,163.56783 194.16434,164.07955 194.16434,164.74752 L 194.16434,168.4565 L 193.08622,168.4565 L 193.08622,161.894 L 194.16434,161.894 L 194.16434,162.87838 C 194.35575,162.50338 194.61551,162.22018 194.94364,162.02877 C 195.27176,161.83346 195.66043,161.7358 196.10966,161.7358 C 196.77762,161.7358 197.27567,161.95651 197.6038,162.39791 C 197.93582,162.83541 198.10184,163.49947 198.10184,164.39009 M 205.37919,168.12252 C 205.09012,168.29048 204.79129,168.41548 204.4827,168.49752 C 204.17801,168.58345 203.86551,168.62642 203.5452,168.62642 C 202.52957,168.62642 201.73465,168.32173 201.16044,167.71236 C 200.59012,167.10299 200.30497,166.25924 200.30497,165.18111 C 200.30497,164.10299 200.59012,163.25924 201.16044,162.64986 C 201.73465,162.04049 202.52957,161.7358 203.5452,161.7358 C 203.8616,161.7358 204.1702,161.77682 204.47098,161.85884 C 204.77176,161.94088 205.07449,162.06783 205.37919,162.2397 L 205.37919,163.37056 C 205.09402,163.11666 204.80692,162.93307 204.51786,162.81978 C 204.2327,162.70651 203.90848,162.64987 203.5452,162.64986 C 202.86942,162.64987 202.34989,162.86862 201.98661,163.30611 C 201.62333,163.74361 201.44168,164.36861 201.44169,165.18111 C 201.44168,165.98971 201.62333,166.61471 201.98661,167.05611 C 202.35379,167.49361 202.87332,167.71236 203.5452,167.71236 C 203.9202,167.71236 204.25613,167.65572 204.55301,167.54244 C 204.84988,167.42525 205.12527,167.24556 205.37919,167.00338 L 205.37919,168.12252 M 212.89677,164.90572 L 212.89677,165.43306 L 208.22684,165.43306 L 208.22684,165.46822 C 208.22684,166.18307 208.41239,166.7358 208.78348,167.12642 C 209.15848,167.51705 209.68582,167.71236 210.36551,167.71236 C 210.70926,167.71236 211.06864,167.65767 211.44364,167.5483 C 211.81863,167.43892 212.21902,167.27291 212.64481,167.05025 L 212.64481,168.12252 C 212.23465,168.29048 211.83817,168.41548 211.45536,168.49752 C 211.07645,168.58345 210.70926,168.62642 210.3538,168.62642 C 209.33426,168.62642 208.53739,168.32173 207.96317,167.71236 C 207.38895,167.09908 207.10184,166.25533 207.10184,165.18111 C 207.10184,164.13424 207.38309,163.2983 207.94559,162.6733 C 208.50809,162.0483 209.25809,161.7358 210.19559,161.7358 C 211.03153,161.7358 211.68973,162.01901 212.1702,162.58541 C 212.65457,163.15182 212.89676,163.92525 212.89677,164.90572 M 211.81864,164.58931 C 211.80301,163.9565 211.65262,163.47604 211.36747,163.14791 C 211.08621,162.81588 210.67996,162.64987 210.14872,162.64986 C 209.62918,162.64987 209.20145,162.82174 208.86551,163.16548 C 208.52958,163.50924 208.33036,163.9858 208.26786,164.59517 L 211.81864,164.58931"
       id="flowRoot9303" />
    <g
       id="g2210"
       transform="matrix(1.1982399,0,0,1,-3.5085736,8.9914048)">
      <path
         style="fill:#000000;fill-opacity:1;fill-rule:evenodd;stroke:none;stroke-width:1;stroke-linecap:butt;stroke-linejoin:miter;stroke-miterlimit:4;stroke-dasharray:4, 4;stroke-dashoffset:0;stroke-opacity:1;display:inline"
         d="M 69.3125,303.25 L 73.3125,303.25 L 73.3125,302.25 L 69.3125,302.25 L 69.3125,303.25 z M 77.3125,303.25 L 81.3125,303.25 L 81.3125,302.25 L 77.3125,302.25 L 77.3125,303.25 z M 85.3125,303.25 L 89.3125,303.25 L 89.3125,302.25 L 85.3125,302.25 L 85.3125,303.25 z M 93.3125,303.28125 L 97.3125,303.28125 L 97.3125,302.28125 L 93.3125,302.28125 L 93.3125,303.28125 z M 101.3125,303.28125 L 105.3125,303.28125 L 105.3125,302.28125 L 101.3125,302.28125 L 101.3125,303.28125 z M 109.3125,303.28125 L 113.3125,303.28125 L 113.3125,302.28125 L 109.3125,302.28125 L 109.3125,303.28125 z M 117.3125,303.28125 L 121.3125,303.28125 L 121.3125,302.28125 L 117.3125,302.28125 L 117.3125,303.28125 z M 125.3125,303.28125 L 129.3125,303.3125 L 129.3125,302.3125 L 125.3125,302.28125 L 125.3125,303.28125 z M 133.3125,303.3125 L 137.3125,303.3125 L 137.3125,302.3125 L 133.3125,302.3125 L 133.3125,303.3125 z M 141.3125,303.3125 L 145.3125,303.3125 L 145.3125,302.3125 L 141.3125,302.3125 L 141.3125,303.3125 z M 149.3125,303.3125 L 153.3125,303.3125 L 153.3125,302.3125 L 149.3125,302.3125 L 149.3125,303.3125 z M 157.3125,303.3125 L 161.3125,303.34375 L 161.3125,302.34375 L 157.3125,302.3125 L 157.3125,303.3125 z M 165.3125,303.34375 L 169.3125,303.34375 L 169.3125,302.34375 L 165.3125,302.34375 L 165.3125,303.34375 z M 173.3125,303.34375 L 177.3125,303.34375 L 177.3125,302.34375 L 173.3125,302.34375 L 173.3125,303.34375 z M 181.3125,303.34375 L 185.3125,303.34375 L 185.3125,302.34375 L 181.3125,302.34375 L 181.3125,303.34375 z M 189.3125,303.34375 L 193.3125,303.34375 L 193.3125,302.34375 L 189.3125,302.34375 L 189.3125,303.34375 z M 197.3125,303.375 L 201.3125,303.375 L 201.3125,302.375 L 197.3125,302.375 L 197.3125,303.375 z M 205.3125,303.375 L 209.3125,303.375 L 209.3125,302.375 L 205.3125,302.375 L 205.3125,303.375 z M 213.3125,303.375 L 217.3125,303.375 L 217.3125,302.375 L 213.3125,302.375 L 213.3125,303.375 z M 221.3125,303.375 L 225.3125,303.375 L 225.3125,302.375 L 221.3125,302.375 L 221.3125,303.375 z M 229.3125,303.40625 L 233.3125,303.40625 L 233.3125,302.40625 L 229.3125,302.40625 L 229.3125,303.40625 z M 237.3125,303.40625 L 241.3125,303.40625 L 241.3125,302.40625 L 237.3125,302.40625 L 237.3125,303.40625 z M 245.3125,303.40625 L 249.3125,303.40625 L 249.3125,302.40625 L 245.3125,302.40625 L 245.3125,303.40625 z M 253.3125,303.40625 L 257.3125,303.40625 L 257.3125,302.40625 L 253.3125,302.40625 L 253.3125,303.40625 z M 261.3125,303.40625 L 265.3125,303.4375 L 265.3125,302.4375 L 261.3125,302.40625 L 261.3125,303.40625 z M 269.3125,303.4375 L 273.3125,303.4375 L 273.3125,302.4375 L 269.3125,302.4375 L 269.3125,303.4375 z "
         id="path10325" />
      <path
         style="fill-rule:evenodd;stroke:#000000;stroke-width:0.73083291pt;marker-start:none"
         d="M 61.796846,302.73868 L 68.720495,298.74499 L 68.713191,306.74499 L 61.796846,302.73868 z "
         id="path2216" />
    </g>
    <path
       style="font-family:Bitstream Vera Sans Mono"
       d="M 181.47001,300.61957 L 181.47001,302.48285 L 183.91922,302.48285 L 183.91922,303.32074 L 181.47001,303.32074 L 181.47001,306.88324 C 181.47,307.36762 181.5618,307.70551 181.7454,307.89691 C 181.92899,308.08832 182.2493,308.18402 182.70633,308.18402 L 183.91922,308.18402 L 183.91922,309.04535 L 182.60087,309.04535 C 181.79227,309.04535 181.22196,308.88324 180.88993,308.55902 C 180.55789,308.2348 180.39188,307.67621 180.39188,306.88324 L 180.39188,303.32074 L 178.63993,303.32074 L 178.63993,302.48285 L 180.39188,302.48285 L 180.39188,300.61957 L 181.47001,300.61957 M 188.70048,303.23871 C 188.1536,303.23872 187.73953,303.45161 187.45829,303.87738 C 187.17704,304.30317 187.03641,304.93403 187.03641,305.76996 C 187.03641,306.60199 187.17704,307.23285 187.45829,307.66254 C 187.73953,308.08832 188.1536,308.30121 188.70048,308.30121 C 189.25125,308.30121 189.66727,308.08832 189.94852,307.66254 C 190.22977,307.23285 190.37039,306.60199 190.3704,305.76996 C 190.37039,304.93403 190.22977,304.30317 189.94852,303.87738 C 189.66727,303.45161 189.25125,303.23872 188.70048,303.23871 M 188.70048,302.32465 C 189.61063,302.32465 190.30594,302.61957 190.78641,303.20941 C 191.27078,303.79926 191.51297,304.65278 191.51298,305.76996 C 191.51297,306.89105 191.27273,307.74652 190.79227,308.33637 C 190.3118,308.9223 189.61453,309.21527 188.70048,309.21527 C 187.79032,309.21527 187.095,308.9223 186.61454,308.33637 C 186.13407,307.74652 185.89383,306.89105 185.89383,305.76996 C 185.89383,304.65278 186.13407,303.79926 186.61454,303.20941 C 187.095,302.61957 187.79032,302.32465 188.70048,302.32465 M 193.69266,299.92816 L 194.80594,299.92816 L 194.80594,305.20746 L 197.63602,302.48285 L 198.94852,302.48285 L 196.36454,304.95551 L 199.35282,309.04535 L 198.03446,309.04535 L 195.60868,305.65863 L 194.80594,306.41449 L 194.80594,309.04535 L 193.69266,309.04535 L 193.69266,299.92816 M 206.04422,305.49457 L 206.04422,306.02191 L 201.3743,306.02191 L 201.3743,306.05707 C 201.3743,306.77192 201.55985,307.32465 201.93094,307.71527 C 202.30594,308.1059 202.83328,308.30121 203.51298,308.30121 C 203.85672,308.30121 204.2161,308.24652 204.5911,308.13715 C 204.96609,308.02777 205.36648,307.86176 205.79227,307.6391 L 205.79227,308.71137 C 205.38211,308.87933 204.98563,309.00433 204.60282,309.08637 C 204.22391,309.1723 203.85672,309.21527 203.50126,309.21527 C 202.48172,309.21527 201.68485,308.91058 201.11063,308.30121 C 200.53641,307.68793 200.2493,306.84418 200.2493,305.76996 C 200.2493,304.72309 200.53055,303.88715 201.09305,303.26215 C 201.65555,302.63715 202.40555,302.32465 203.34305,302.32465 C 204.17899,302.32465 204.83719,302.60786 205.31766,303.17426 C 205.80203,303.74067 206.04422,304.5141 206.04422,305.49457 M 204.9661,305.17816 C 204.95047,304.54535 204.80008,304.06489 204.51493,303.73676 C 204.23367,303.40473 203.82742,303.23872 203.29618,303.23871 C 202.77664,303.23872 202.34891,303.41059 202.01298,303.75433 C 201.67704,304.09809 201.47782,304.57465 201.41532,305.18402 L 204.9661,305.17816 M 212.90555,304.97894 L 212.90555,309.04535 L 211.82157,309.04535 L 211.82157,304.97894 C 211.82156,304.3891 211.71805,303.95551 211.51102,303.67816 C 211.30399,303.40082 210.97977,303.26215 210.53837,303.26215 C 210.03446,303.26215 209.64578,303.44184 209.37235,303.80121 C 209.10282,304.15668 208.96805,304.6684 208.96805,305.33637 L 208.96805,309.04535 L 207.88993,309.04535 L 207.88993,302.48285 L 208.96805,302.48285 L 208.96805,303.46722 C 209.15946,303.09223 209.41922,302.80903 209.74735,302.61762 C 210.07547,302.42231 210.46414,302.32465 210.91337,302.32465 C 211.58133,302.32465 212.07938,302.54536 212.40751,302.98676 C 212.73953,303.42426 212.90555,304.08832 212.90555,304.97894"
       id="flowRoot10327" />
    <rect
       style="opacity:1;fill:#ffffff;fill-opacity:1;fill-rule:nonzero;stroke:#000000;stroke-width:1;stroke-linecap:round;stroke-linejoin:round;stroke-miterlimit:4;stroke-dasharray:none;stroke-dashoffset:0;stroke-opacity:1"
       id="rect10380"
       width="6.5659914"
       height="50.807476"
       x="322.22705"
       y="114.76512"
       rx="0.090846322"
       ry="0.0908463" />
    <rect
       ry="0.090846315"
       rx="0.090846322"
       y="258.36417"
       x="322.22705"
       height="48.443993"
       width="6.5659914"
       id="rect11351"
       style="opacity:1;fill:#ffffff;fill-opacity:1;fill-rule:nonzero;stroke:#000000;stroke-width:1;stroke-linecap:round;stroke-linejoin:round;stroke-miterlimit:4;stroke-dasharray:none;stroke-dashoffset:0;stroke-opacity:1" />
    <path
       transform="translate(27.142858,61.999999)"
       style="font-family:Bitstream Vera Sans Mono"
       d="M 50.900391,168.30083 C 50.900387,168.78521 50.988277,169.15044 51.164062,169.39654 C 51.343746,169.64263 51.607417,169.76568 51.955078,169.76568 L 53.214844,169.76568 L 53.214844,170.67974 L 51.849609,170.67974 C 51.205074,170.67974 50.705075,170.47271 50.349609,170.05865 C 49.998044,169.64458 49.822263,169.05865 49.822266,168.30083 L 49.822266,162.34185 L 48.09375,162.34185 L 48.09375,161.4981 L 50.900391,161.4981 L 50.900391,168.30083 M 57.984375,164.8731 C 57.437497,164.87311 57.023435,165.086 56.742188,165.51177 C 56.460935,165.93756 56.320311,166.56842 56.320312,167.40435 C 56.320311,168.23638 56.460935,168.86724 56.742188,169.29693 C 57.023435,169.72271 57.437497,169.9356 57.984375,169.9356 C 58.535152,169.9356 58.951167,169.72271 59.232422,169.29693 C 59.513667,168.86724 59.654292,168.23638 59.654297,167.40435 C 59.654292,166.56842 59.513667,165.93756 59.232422,165.51177 C 58.951167,165.086 58.535152,164.87311 57.984375,164.8731 M 57.984375,163.95904 C 58.894527,163.95904 59.589839,164.25397 60.070312,164.8438 C 60.554681,165.43365 60.796869,166.28717 60.796875,167.40435 C 60.796869,168.52545 60.556634,169.38091 60.076172,169.97076 C 59.595698,170.55669 58.898433,170.84966 57.984375,170.84966 C 57.074216,170.84966 56.378904,170.55669 55.898438,169.97076 C 55.417968,169.38091 55.177734,168.52545 55.177734,167.40435 C 55.177734,166.28717 55.417968,165.43365 55.898438,164.8438 C 56.378904,164.25397 57.074216,163.95904 57.984375,163.95904 M 66.621094,167.34576 C 66.621089,166.53717 66.488276,165.92389 66.222656,165.50591 C 65.960933,165.08404 65.578121,164.87311 65.074219,164.8731 C 64.546872,164.87311 64.144529,165.08404 63.867188,165.50591 C 63.589842,165.92389 63.45117,166.53717 63.451172,167.34576 C 63.45117,168.15435 63.589842,168.77154 63.867188,169.19732 C 64.148435,169.61919 64.554685,169.83013 65.085938,169.83013 C 65.582027,169.83013 65.960933,169.61724 66.222656,169.19146 C 66.488276,168.76568 66.621089,168.15045 66.621094,167.34576 M 67.699219,170.25786 C 67.699213,171.24224 67.466791,171.98833 67.001953,172.49615 C 66.537104,173.00396 65.853511,173.25786 64.951172,173.25786 C 64.654294,173.25786 64.343747,173.23052 64.019531,173.17583 C 63.69531,173.12114 63.371092,173.04107 63.046875,172.9356 L 63.046875,171.86919 C 63.429686,172.04888 63.777342,172.18169 64.089844,172.26763 C 64.402341,172.35357 64.68945,172.39654 64.951172,172.39654 C 65.533199,172.39654 65.957027,172.23833 66.222656,171.92193 C 66.488276,171.60552 66.621089,171.10357 66.621094,170.41607 L 66.621094,170.36919 L 66.621094,169.63677 C 66.449214,170.00396 66.214839,170.2774 65.917969,170.45708 C 65.62109,170.63677 65.259762,170.72661 64.833984,170.72661 C 64.068357,170.72661 63.457029,170.41997 63,169.80669 C 62.542968,169.19341 62.314452,168.3731 62.314453,167.34576 C 62.314452,166.31451 62.542968,165.49225 63,164.87896 C 63.457029,164.26568 64.068357,163.95904 64.833984,163.95904 C 65.255856,163.95904 65.613277,164.04303 65.90625,164.21099 C 66.199214,164.37896 66.437495,164.63873 66.621094,164.99029 L 66.621094,164.14068 L 67.699219,164.14068 L 67.699219,170.25786 M 70.3125,164.11724 L 73.072266,164.11724 L 73.072266,169.84185 L 75.210938,169.84185 L 75.210938,170.67974 L 69.855469,170.67974 L 69.855469,169.84185 L 71.994141,169.84185 L 71.994141,164.95513 L 70.3125,164.95513 L 70.3125,164.11724 M 71.994141,161.56255 L 73.072266,161.56255 L 73.072266,162.92779 L 71.994141,162.92779 L 71.994141,161.56255 M 82.189453,166.61333 L 82.189453,170.67974 L 81.105469,170.67974 L 81.105469,166.61333 C 81.105464,166.02349 81.001948,165.5899 80.794922,165.31255 C 80.587886,165.03521 80.263668,164.89654 79.822266,164.89654 C 79.318356,164.89654 78.929685,165.07623 78.65625,165.4356 C 78.386716,165.79107 78.251951,166.30279 78.251953,166.97076 L 78.251953,170.67974 L 77.173828,170.67974 L 77.173828,164.11724 L 78.251953,164.11724 L 78.251953,165.10161 C 78.443357,164.72662 78.703122,164.44342 79.03125,164.25201 C 79.359372,164.0567 79.748043,163.95904 80.197266,163.95904 C 80.86523,163.95904 81.363276,164.17975 81.691406,164.62115 C 82.023432,165.05865 82.189447,165.72271 82.189453,166.61333 M 88.435547,161.57427 C 87.916011,162.4649 87.527339,163.35358 87.269531,164.24029 C 87.015621,165.1231 86.888668,166.01373 86.888672,166.91216 C 86.888668,167.8067 87.015621,168.69732 87.269531,169.58404 C 87.527339,170.47076 87.916011,171.36333 88.435547,172.26177 L 87.498047,172.26177 C 86.908199,171.33208 86.468747,170.42779 86.179688,169.54888 C 85.890622,168.66607 85.746091,167.78716 85.746094,166.91216 C 85.746091,166.04107 85.890622,165.16412 86.179688,164.2813 C 86.468747,163.3985 86.908199,162.49615 87.498047,161.57427 L 88.435547,161.57427 M 91.611328,168.19536 L 91.611328,164.12896 L 92.689453,164.12896 L 92.689453,168.19536 C 92.689451,168.78521 92.792966,169.2188 93,169.49615 C 93.210935,169.77349 93.535153,169.91216 93.972656,169.91216 C 94.480465,169.91216 94.869136,169.73443 95.138672,169.37896 C 95.408198,169.01959 95.542964,168.50591 95.542969,167.83794 L 95.542969,164.12896 L 96.626953,164.12896 L 96.626953,170.67974 L 95.542969,170.67974 L 95.542969,169.69536 C 95.351558,170.07427 95.089839,170.36138 94.757812,170.55669 C 94.429684,170.75201 94.044918,170.84966 93.603516,170.84966 C 92.931638,170.84966 92.431639,170.63091 92.103516,170.19341 C 91.775389,169.75201 91.611327,169.08599 91.611328,168.19536 M 103.38867,164.34576 L 103.38867,165.40044 C 103.08007,165.22076 102.76953,165.086 102.45703,164.99615 C 102.14453,164.90631 101.82617,164.86139 101.50195,164.86138 C 101.01367,164.86139 100.64843,164.94146 100.40625,165.10161 C 100.16797,165.25787 100.04883,165.4981 100.04883,165.82232 C 100.04883,166.11529 100.13867,166.33404 100.31836,166.47857 C 100.49804,166.6231 100.94531,166.76373 101.66016,166.90044 L 102.09375,166.98247 C 102.6289,167.08404 103.0332,167.28717 103.30664,167.59185 C 103.58398,167.89654 103.72265,168.29302 103.72266,168.7813 C 103.72265,169.42974 103.49218,169.93755 103.03125,170.30474 C 102.57031,170.66802 101.92968,170.84966 101.10938,170.84966 C 100.78515,170.84966 100.44531,170.81451 100.08984,170.74419 C 99.734373,170.67779 99.349608,170.57622 98.935547,170.43951 L 98.935547,169.32622 C 99.337889,169.53326 99.722654,169.68951 100.08984,169.79497 C 100.45703,169.89654 100.80468,169.94732 101.13281,169.94732 C 101.60937,169.94732 101.97851,169.85162 102.24023,169.66021 C 102.50195,169.4649 102.63281,169.19341 102.63281,168.84576 C 102.63281,168.34576 102.15429,168.00006 101.19727,167.80865 L 101.15039,167.79693 L 100.74609,167.7149 C 100.125,167.59381 99.671873,167.39068 99.386719,167.10552 C 99.101561,166.81646 98.958983,166.42388 98.958984,165.92779 C 98.958983,165.29889 99.171874,164.81451 99.597656,164.47466 C 100.02344,164.13092 100.63086,163.95904 101.41992,163.95904 C 101.77148,163.95904 102.10937,163.99225 102.43359,164.05865 C 102.75781,164.12115 103.07617,164.21686 103.38867,164.34576 M 111.42188,167.12896 L 111.42188,167.6563 L 106.75195,167.6563 L 106.75195,167.69146 C 106.75195,168.4063 106.9375,168.95904 107.30859,169.34966 C 107.68359,169.74029 108.21093,169.9356 108.89062,169.9356 C 109.23437,169.9356 109.59375,169.88091 109.96875,169.77154 C 110.34374,169.66216 110.74413,169.49615 111.16992,169.27349 L 111.16992,170.34576 C 110.75976,170.51372 110.36328,170.63872 109.98047,170.72076 C 109.60156,170.80669 109.23437,170.84966 108.87891,170.84966 C 107.85937,170.84966 107.0625,170.54497 106.48828,169.9356 C 105.91406,169.32232 105.62695,168.47857 105.62695,167.40435 C 105.62695,166.35748 105.9082,165.52154 106.4707,164.89654 C 107.0332,164.27154 107.7832,163.95904 108.7207,163.95904 C 109.55664,163.95904 110.21484,164.24225 110.69531,164.80865 C 111.17968,165.37506 111.42187,166.14849 111.42188,167.12896 M 110.34375,166.81255 C 110.32812,166.17974 110.17773,165.69928 109.89258,165.37115 C 109.61132,165.03912 109.20507,164.87311 108.67383,164.8731 C 108.15429,164.87311 107.72656,165.04498 107.39062,165.38872 C 107.05469,165.73248 106.85547,166.20904 106.79297,166.81841 L 110.34375,166.81255 M 118.89258,165.47076 C 118.6621,165.29107 118.42773,165.16021 118.18945,165.07818 C 117.95117,164.99615 117.68945,164.95514 117.4043,164.95513 C 116.73242,164.95514 116.21875,165.16607 115.86328,165.58794 C 115.50781,166.00982 115.33007,166.6192 115.33008,167.41607 L 115.33008,170.67974 L 114.24609,170.67974 L 114.24609,164.11724 L 115.33008,164.11724 L 115.33008,165.40044 C 115.50976,164.93561 115.78515,164.58014 116.15625,164.33404 C 116.53125,164.08404 116.9746,163.95904 117.48633,163.95904 C 117.75195,163.95904 117.99999,163.99225 118.23047,164.05865 C 118.46093,164.12506 118.68163,164.22857 118.89258,164.36919 L 118.89258,165.47076 M 125.50195,166.61333 L 125.50195,170.67974 L 124.41797,170.67974 L 124.41797,166.61333 C 124.41796,166.02349 124.31445,165.5899 124.10742,165.31255 C 123.90039,165.03521 123.57617,164.89654 123.13477,164.89654 C 122.63086,164.89654 122.24218,165.07623 121.96875,165.4356 C 121.69922,165.79107 121.56445,166.30279 121.56445,166.97076 L 121.56445,170.67974 L 120.48633,170.67974 L 120.48633,164.11724 L 121.56445,164.11724 L 121.56445,165.10161 C 121.75586,164.72662 122.01562,164.44342 122.34375,164.25201 C 122.67187,164.0567 123.06054,163.95904 123.50977,163.95904 C 124.17773,163.95904 124.67578,164.17975 125.00391,164.62115 C 125.33593,165.05865 125.50195,165.72271 125.50195,166.61333 M 130.67578,167.38091 L 130.31836,167.38091 C 129.68945,167.38092 129.21484,167.49224 128.89453,167.7149 C 128.57812,167.93365 128.41992,168.26177 128.41992,168.69927 C 128.41992,169.0938 128.53906,169.40044 128.77734,169.61919 C 129.01562,169.83794 129.3457,169.94732 129.76758,169.94732 C 130.36132,169.94732 130.82812,169.74224 131.16797,169.33208 C 131.50781,168.91802 131.67968,168.34771 131.68359,167.62115 L 131.68359,167.38091 L 130.67578,167.38091 M 132.76758,166.9356 L 132.76758,170.67974 L 131.68359,170.67974 L 131.68359,169.70708 C 131.45312,170.09771 131.1621,170.38677 130.81055,170.57427 C 130.46289,170.75786 130.03906,170.84966 129.53906,170.84966 C 128.87109,170.84966 128.33789,170.66216 127.93945,170.28716 C 127.54101,169.90826 127.3418,169.4024 127.3418,168.76958 C 127.3418,168.03912 127.58594,167.48443 128.07422,167.10552 C 128.5664,166.72662 129.28711,166.53717 130.23633,166.53716 L 131.68359,166.53716 L 131.68359,166.36724 C 131.67968,165.84381 131.54687,165.4649 131.28516,165.23052 C 131.02343,164.99225 130.60546,164.87311 130.03125,164.8731 C 129.66406,164.87311 129.29297,164.92584 128.91797,165.0313 C 128.54297,165.13678 128.17773,165.29107 127.82227,165.49419 L 127.82227,164.41607 C 128.2207,164.26373 128.60156,164.15045 128.96484,164.07622 C 129.33203,163.99811 129.6875,163.95904 130.03125,163.95904 C 130.57421,163.95904 131.0371,164.03912 131.41992,164.19927 C 131.80664,164.35943 132.11914,164.59967 132.35742,164.91997 C 132.50585,165.11529 132.61132,165.35748 132.67383,165.64654 C 132.73632,165.9317 132.76757,166.36138 132.76758,166.9356 M 137.74219,164.78521 C 137.875,164.50396 138.04296,164.29693 138.24609,164.16411 C 138.45312,164.0274 138.70117,163.95904 138.99023,163.95904 C 139.51757,163.95904 139.88867,164.16412 140.10352,164.57427 C 140.32226,164.98053 140.43163,165.7481 140.43164,166.87701 L 140.43164,170.67974 L 139.44727,170.67974 L 139.44727,166.92388 C 139.44726,165.9981 139.39453,165.42389 139.28906,165.20122 C 139.18749,164.97467 138.99999,164.86139 138.72656,164.86138 C 138.41406,164.86139 138.19921,164.98248 138.08203,165.22466 C 137.96875,165.46295 137.91211,166.02935 137.91211,166.92388 L 137.91211,170.67974 L 136.92773,170.67974 L 136.92773,166.92388 C 136.92773,165.98639 136.87109,165.40826 136.75781,165.18951 C 136.64843,164.97076 136.44922,164.86139 136.16016,164.86138 C 135.875,164.86139 135.67578,164.98248 135.5625,165.22466 C 135.45312,165.46295 135.39844,166.02935 135.39844,166.92388 L 135.39844,170.67974 L 134.41992,170.67974 L 134.41992,164.11724 L 135.39844,164.11724 L 135.39844,164.67974 C 135.52734,164.44537 135.6875,164.26764 135.87891,164.14654 C 136.07422,164.02154 136.29492,163.95904 136.54102,163.95904 C 136.83789,163.95904 137.08398,164.0274 137.2793,164.16411 C 137.47851,164.30084 137.63281,164.50787 137.74219,164.78521 M 147.51562,167.12896 L 147.51562,167.6563 L 142.8457,167.6563 L 142.8457,167.69146 C 142.8457,168.4063 143.03125,168.95904 143.40234,169.34966 C 143.77734,169.74029 144.30468,169.9356 144.98438,169.9356 C 145.32812,169.9356 145.6875,169.88091 146.0625,169.77154 C 146.43749,169.66216 146.83788,169.49615 147.26367,169.27349 L 147.26367,170.34576 C 146.85351,170.51372 146.45703,170.63872 146.07422,170.72076 C 145.69531,170.80669 145.32812,170.84966 144.97266,170.84966 C 143.95312,170.84966 143.15625,170.54497 142.58203,169.9356 C 142.00781,169.32232 141.7207,168.47857 141.7207,167.40435 C 141.7207,166.35748 142.00195,165.52154 142.56445,164.89654 C 143.12695,164.27154 143.87695,163.95904 144.81445,163.95904 C 145.65039,163.95904 146.30859,164.24225 146.78906,164.80865 C 147.27343,165.37506 147.51562,166.14849 147.51562,167.12896 M 146.4375,166.81255 C 146.42187,166.17974 146.27148,165.69928 145.98633,165.37115 C 145.70507,165.03912 145.29882,164.87311 144.76758,164.8731 C 144.24804,164.87311 143.82031,165.04498 143.48438,165.38872 C 143.14844,165.73248 142.94922,166.20904 142.88672,166.81841 L 146.4375,166.81255 M 151.16016,168.90435 L 152.63672,168.90435 L 152.63672,170.11724 L 151.48242,172.36138 L 150.58008,172.36138 L 151.16016,170.11724 L 151.16016,168.90435 M 168.87305,170.34576 C 168.58398,170.51372 168.28515,170.63872 167.97656,170.72076 C 167.67187,170.80669 167.35937,170.84966 167.03906,170.84966 C 166.02343,170.84966 165.22851,170.54497 164.6543,169.9356 C 164.08398,169.32623 163.79883,168.48248 163.79883,167.40435 C 163.79883,166.32623 164.08398,165.48248 164.6543,164.8731 C 165.22851,164.26373 166.02343,163.95904 167.03906,163.95904 C 167.35546,163.95904 167.66406,164.00006 167.96484,164.08208 C 168.26562,164.16412 168.56835,164.29107 168.87305,164.46294 L 168.87305,165.5938 C 168.58788,165.3399 168.30078,165.15631 168.01172,165.04302 C 167.72656,164.92975 167.40234,164.87311 167.03906,164.8731 C 166.36328,164.87311 165.84375,165.09185 165.48047,165.52935 C 165.11719,165.96685 164.93554,166.59185 164.93555,167.40435 C 164.93554,168.21295 165.11719,168.83794 165.48047,169.27935 C 165.84765,169.71685 166.36718,169.9356 167.03906,169.9356 C 167.41406,169.9356 167.74999,169.87896 168.04688,169.76568 C 168.34374,169.64849 168.61913,169.4688 168.87305,169.22661 L 168.87305,170.34576 M 176.0332,166.61333 L 176.0332,170.67974 L 174.94922,170.67974 L 174.94922,166.61333 C 174.94921,166.02349 174.8457,165.5899 174.63867,165.31255 C 174.43164,165.03521 174.10742,164.89654 173.66602,164.89654 C 173.16211,164.89654 172.77343,165.07623 172.5,165.4356 C 172.23047,165.79107 172.0957,166.30279 172.0957,166.97076 L 172.0957,170.67974 L 171.01758,170.67974 L 171.01758,164.11724 L 172.0957,164.11724 L 172.0957,165.10161 C 172.28711,164.72662 172.54687,164.44342 172.875,164.25201 C 173.20312,164.0567 173.59179,163.95904 174.04102,163.95904 C 174.70898,163.95904 175.20703,164.17975 175.53516,164.62115 C 175.86718,165.05865 176.0332,165.72271 176.0332,166.61333 M 180.70312,164.8731 C 180.15625,164.87311 179.74218,165.086 179.46094,165.51177 C 179.17969,165.93756 179.03906,166.56842 179.03906,167.40435 C 179.03906,168.23638 179.17969,168.86724 179.46094,169.29693 C 179.74218,169.72271 180.15625,169.9356 180.70312,169.9356 C 181.2539,169.9356 181.66992,169.72271 181.95117,169.29693 C 182.23242,168.86724 182.37304,168.23638 182.37305,167.40435 C 182.37304,166.56842 182.23242,165.93756 181.95117,165.51177 C 181.66992,165.086 181.2539,164.87311 180.70312,164.8731 M 180.70312,163.95904 C 181.61328,163.95904 182.30859,164.25397 182.78906,164.8438 C 183.27343,165.43365 183.51562,166.28717 183.51562,167.40435 C 183.51562,168.52545 183.27538,169.38091 182.79492,169.97076 C 182.31445,170.55669 181.61718,170.84966 180.70312,170.84966 C 179.79297,170.84966 179.09765,170.55669 178.61719,169.97076 C 178.13672,169.38091 177.89648,168.52545 177.89648,167.40435 C 177.89648,166.28717 178.13672,165.43365 178.61719,164.8438 C 179.09765,164.25397 179.79297,163.95904 180.70312,163.95904 M 190.4707,166.61333 L 190.4707,170.67974 L 189.38672,170.67974 L 189.38672,166.61333 C 189.38671,166.02349 189.2832,165.5899 189.07617,165.31255 C 188.86914,165.03521 188.54492,164.89654 188.10352,164.89654 C 187.59961,164.89654 187.21093,165.07623 186.9375,165.4356 C 186.66797,165.79107 186.5332,166.30279 186.5332,166.97076 L 186.5332,170.67974 L 185.45508,170.67974 L 185.45508,164.11724 L 186.5332,164.11724 L 186.5332,165.10161 C 186.72461,164.72662 186.98437,164.44342 187.3125,164.25201 C 187.64062,164.0567 188.02929,163.95904 188.47852,163.95904 C 189.14648,163.95904 189.64453,164.17975 189.97266,164.62115 C 190.30468,165.05865 190.4707,165.72271 190.4707,166.61333 M 197.74805,170.34576 C 197.45898,170.51372 197.16015,170.63872 196.85156,170.72076 C 196.54687,170.80669 196.23437,170.84966 195.91406,170.84966 C 194.89843,170.84966 194.10351,170.54497 193.5293,169.9356 C 192.95898,169.32623 192.67383,168.48248 192.67383,167.40435 C 192.67383,166.32623 192.95898,165.48248 193.5293,164.8731 C 194.10351,164.26373 194.89843,163.95904 195.91406,163.95904 C 196.23046,163.95904 196.53906,164.00006 196.83984,164.08208 C 197.14062,164.16412 197.44335,164.29107 197.74805,164.46294 L 197.74805,165.5938 C 197.46288,165.3399 197.17578,165.15631 196.88672,165.04302 C 196.60156,164.92975 196.27734,164.87311 195.91406,164.8731 C 195.23828,164.87311 194.71875,165.09185 194.35547,165.52935 C 193.99219,165.96685 193.81054,166.59185 193.81055,167.40435 C 193.81054,168.21295 193.99219,168.83794 194.35547,169.27935 C 194.72265,169.71685 195.24218,169.9356 195.91406,169.9356 C 196.28906,169.9356 196.62499,169.87896 196.92188,169.76568 C 197.21874,169.64849 197.49413,169.4688 197.74805,169.22661 L 197.74805,170.34576 M 205.26562,167.12896 L 205.26562,167.6563 L 200.5957,167.6563 L 200.5957,167.69146 C 200.5957,168.4063 200.78125,168.95904 201.15234,169.34966 C 201.52734,169.74029 202.05468,169.9356 202.73438,169.9356 C 203.07812,169.9356 203.4375,169.88091 203.8125,169.77154 C 204.18749,169.66216 204.58788,169.49615 205.01367,169.27349 L 205.01367,170.34576 C 204.60351,170.51372 204.20703,170.63872 203.82422,170.72076 C 203.44531,170.80669 203.07812,170.84966 202.72266,170.84966 C 201.70312,170.84966 200.90625,170.54497 200.33203,169.9356 C 199.75781,169.32232 199.4707,168.47857 199.4707,167.40435 C 199.4707,166.35748 199.75195,165.52154 200.31445,164.89654 C 200.87695,164.27154 201.62695,163.95904 202.56445,163.95904 C 203.40039,163.95904 204.05859,164.24225 204.53906,164.80865 C 205.02343,165.37506 205.26562,166.14849 205.26562,167.12896 M 204.1875,166.81255 C 204.17187,166.17974 204.02148,165.69928 203.73633,165.37115 C 203.45507,165.03912 203.04882,164.87311 202.51758,164.8731 C 201.99804,164.87311 201.57031,165.04498 201.23438,165.38872 C 200.89844,165.73248 200.69922,166.20904 200.63672,166.81841 L 204.1875,166.81255 M 208.91016,168.90435 L 210.38672,168.90435 L 210.38672,170.11724 L 209.23242,172.36138 L 208.33008,172.36138 L 208.91016,170.11724 L 208.91016,168.90435 M 67.751953,181.61333 L 67.751953,185.67974 L 66.667969,185.67974 L 66.667969,181.61333 C 66.667964,181.02349 66.564448,180.5899 66.357422,180.31255 C 66.150386,180.03521 65.826168,179.89654 65.384766,179.89654 C 64.880856,179.89654 64.492185,180.07623 64.21875,180.4356 C 63.949216,180.79107 63.814451,181.30279 63.814453,181.97076 L 63.814453,185.67974 L 62.736328,185.67974 L 62.736328,176.56255 L 63.814453,176.56255 L 63.814453,180.10161 C 64.005857,179.72662 64.265622,179.44342 64.59375,179.25201 C 64.921872,179.0567 65.310543,178.95904 65.759766,178.95904 C 66.42773,178.95904 66.925776,179.17975 67.253906,179.62115 C 67.585932,180.05865 67.751947,180.72271 67.751953,181.61333 M 72.925781,182.38091 L 72.568359,182.38091 C 71.93945,182.38092 71.464841,182.49224 71.144531,182.7149 C 70.828123,182.93365 70.66992,183.26177 70.669922,183.69927 C 70.66992,184.0938 70.789061,184.40044 71.027344,184.61919 C 71.265623,184.83794 71.5957,184.94732 72.017578,184.94732 C 72.611324,184.94732 73.078121,184.74224 73.417969,184.33208 C 73.757808,183.91802 73.929682,183.34771 73.933594,182.62115 L 73.933594,182.38091 L 72.925781,182.38091 M 75.017578,181.9356 L 75.017578,185.67974 L 73.933594,185.67974 L 73.933594,184.70708 C 73.70312,185.09771 73.412105,185.38677 73.060547,185.57427 C 72.712887,185.75786 72.289059,185.84966 71.789062,185.84966 C 71.121091,185.84966 70.587889,185.66216 70.189453,185.28716 C 69.791015,184.90826 69.591796,184.4024 69.591797,183.76958 C 69.591796,183.03912 69.835936,182.48443 70.324219,182.10552 C 70.816404,181.72662 71.537107,181.53717 72.486328,181.53716 L 73.933594,181.53716 L 73.933594,181.36724 C 73.929682,180.84381 73.79687,180.4649 73.535156,180.23052 C 73.273433,179.99225 72.855465,179.87311 72.28125,179.8731 C 71.914059,179.87311 71.542966,179.92584 71.167969,180.0313 C 70.792967,180.13678 70.427733,180.29107 70.072266,180.49419 L 70.072266,179.41607 C 70.470701,179.26373 70.85156,179.15045 71.214844,179.07622 C 71.582028,178.99811 71.937497,178.95904 72.28125,178.95904 C 72.824215,178.95904 73.287105,179.03912 73.669922,179.19927 C 74.056635,179.35943 74.369135,179.59967 74.607422,179.91997 C 74.755853,180.11529 74.861322,180.35748 74.923828,180.64654 C 74.986322,180.9317 75.017572,181.36138 75.017578,181.9356 M 81.732422,179.34576 L 81.732422,180.40044 C 81.423823,180.22076 81.113276,180.086 80.800781,179.99615 C 80.488277,179.90631 80.169918,179.86139 79.845703,179.86138 C 79.357419,179.86139 78.992185,179.94146 78.75,180.10161 C 78.511716,180.25787 78.392576,180.4981 78.392578,180.82232 C 78.392576,181.11529 78.482419,181.33404 78.662109,181.47857 C 78.841794,181.6231 79.289059,181.76373 80.003906,181.90044 L 80.4375,181.98247 C 80.972651,182.08404 81.376948,182.28717 81.650391,182.59185 C 81.927728,182.89654 82.0664,183.29302 82.066406,183.7813 C 82.0664,184.42974 81.835932,184.93755 81.375,185.30474 C 80.914058,185.66802 80.273433,185.84966 79.453125,185.84966 C 79.128903,185.84966 78.78906,185.81451 78.433594,185.74419 C 78.078123,185.67779 77.693358,185.57622 77.279297,185.43951 L 77.279297,184.32622 C 77.681639,184.53326 78.066404,184.68951 78.433594,184.79497 C 78.800778,184.89654 79.148434,184.94732 79.476562,184.94732 C 79.953121,184.94732 80.322261,184.85162 80.583984,184.66021 C 80.845698,184.4649 80.976558,184.19341 80.976562,183.84576 C 80.976558,183.34576 80.498042,183.00006 79.541016,182.80865 L 79.494141,182.79693 L 79.089844,182.7149 C 78.468748,182.59381 78.015623,182.39068 77.730469,182.10552 C 77.445311,181.81646 77.302733,181.42388 77.302734,180.92779 C 77.302733,180.29889 77.515624,179.81451 77.941406,179.47466 C 78.367185,179.13092 78.974606,178.95904 79.763672,178.95904 C 80.11523,178.95904 80.453121,178.99225 80.777344,179.05865 C 81.101557,179.12115 81.419916,179.21686 81.732422,179.34576 M 89.408203,181.61333 L 89.408203,185.67974 L 88.324219,185.67974 L 88.324219,181.61333 C 88.324214,181.02349 88.220698,180.5899 88.013672,180.31255 C 87.806636,180.03521 87.482418,179.89654 87.041016,179.89654 C 86.537106,179.89654 86.148435,180.07623 85.875,180.4356 C 85.605466,180.79107 85.470701,181.30279 85.470703,181.97076 L 85.470703,185.67974 L 84.392578,185.67974 L 84.392578,176.56255 L 85.470703,176.56255 L 85.470703,180.10161 C 85.662107,179.72662 85.921872,179.44342 86.25,179.25201 C 86.578122,179.0567 86.966793,178.95904 87.416016,178.95904 C 88.08398,178.95904 88.582026,179.17975 88.910156,179.62115 C 89.242182,180.05865 89.408197,180.72271 89.408203,181.61333 M 95.654297,176.57427 C 95.134761,177.4649 94.746089,178.35358 94.488281,179.24029 C 94.234371,180.1231 94.107418,181.01373 94.107422,181.91216 C 94.107418,182.8067 94.234371,183.69732 94.488281,184.58404 C 94.746089,185.47076 95.134761,186.36333 95.654297,187.26177 L 94.716797,187.26177 C 94.126949,186.33208 93.687497,185.42779 93.398438,184.54888 C 93.109372,183.66607 92.964841,182.78716 92.964844,181.91216 C 92.964841,181.04107 93.109372,180.16412 93.398438,179.2813 C 93.687497,178.3985 94.126949,177.49615 94.716797,176.57427 L 95.654297,176.57427 M 103.8457,181.61333 L 103.8457,185.67974 L 102.76172,185.67974 L 102.76172,181.61333 C 102.76171,181.02349 102.6582,180.5899 102.45117,180.31255 C 102.24414,180.03521 101.91992,179.89654 101.47852,179.89654 C 100.97461,179.89654 100.58593,180.07623 100.3125,180.4356 C 100.04297,180.79107 99.908201,181.30279 99.908203,181.97076 L 99.908203,185.67974 L 98.830078,185.67974 L 98.830078,179.11724 L 99.908203,179.11724 L 99.908203,180.10161 C 100.09961,179.72662 100.35937,179.44342 100.6875,179.25201 C 101.01562,179.0567 101.40429,178.95904 101.85352,178.95904 C 102.52148,178.95904 103.01953,179.17975 103.34766,179.62115 C 103.67968,180.05865 103.8457,180.72271 103.8457,181.61333 M 108.51562,179.8731 C 107.96875,179.87311 107.55468,180.086 107.27344,180.51177 C 106.99219,180.93756 106.85156,181.56842 106.85156,182.40435 C 106.85156,183.23638 106.99219,183.86724 107.27344,184.29693 C 107.55468,184.72271 107.96875,184.9356 108.51562,184.9356 C 109.0664,184.9356 109.48242,184.72271 109.76367,184.29693 C 110.04492,183.86724 110.18554,183.23638 110.18555,182.40435 C 110.18554,181.56842 110.04492,180.93756 109.76367,180.51177 C 109.48242,180.086 109.0664,179.87311 108.51562,179.8731 M 108.51562,178.95904 C 109.42578,178.95904 110.12109,179.25397 110.60156,179.8438 C 111.08593,180.43365 111.32812,181.28717 111.32812,182.40435 C 111.32812,183.52545 111.08788,184.38091 110.60742,184.97076 C 110.12695,185.55669 109.42968,185.84966 108.51562,185.84966 C 107.60547,185.84966 106.91015,185.55669 106.42969,184.97076 C 105.94922,184.38091 105.70898,183.52545 105.70898,182.40435 C 105.70898,181.28717 105.94922,180.43365 106.42969,179.8438 C 106.91015,179.25397 107.60547,178.95904 108.51562,178.95904 M 118.2832,181.61333 L 118.2832,185.67974 L 117.19922,185.67974 L 117.19922,181.61333 C 117.19921,181.02349 117.0957,180.5899 116.88867,180.31255 C 116.68164,180.03521 116.35742,179.89654 115.91602,179.89654 C 115.41211,179.89654 115.02343,180.07623 114.75,180.4356 C 114.48047,180.79107 114.3457,181.30279 114.3457,181.97076 L 114.3457,185.67974 L 113.26758,185.67974 L 113.26758,179.11724 L 114.3457,179.11724 L 114.3457,180.10161 C 114.53711,179.72662 114.79687,179.44342 115.125,179.25201 C 115.45312,179.0567 115.84179,178.95904 116.29102,178.95904 C 116.95898,178.95904 117.45703,179.17975 117.78516,179.62115 C 118.11718,180.05865 118.2832,180.72271 118.2832,181.61333 M 125.56055,185.34576 C 125.27148,185.51372 124.97265,185.63872 124.66406,185.72076 C 124.35937,185.80669 124.04687,185.84966 123.72656,185.84966 C 122.71093,185.84966 121.91601,185.54497 121.3418,184.9356 C 120.77148,184.32623 120.48633,183.48248 120.48633,182.40435 C 120.48633,181.32623 120.77148,180.48248 121.3418,179.8731 C 121.91601,179.26373 122.71093,178.95904 123.72656,178.95904 C 124.04296,178.95904 124.35156,179.00006 124.65234,179.08208 C 124.95312,179.16412 125.25585,179.29107 125.56055,179.46294 L 125.56055,180.5938 C 125.27538,180.3399 124.98828,180.15631 124.69922,180.04302 C 124.41406,179.92975 124.08984,179.87311 123.72656,179.8731 C 123.05078,179.87311 122.53125,180.09185 122.16797,180.52935 C 121.80469,180.96685 121.62304,181.59185 121.62305,182.40435 C 121.62304,183.21295 121.80469,183.83794 122.16797,184.27935 C 122.53515,184.71685 123.05468,184.9356 123.72656,184.9356 C 124.10156,184.9356 124.43749,184.87896 124.73438,184.76568 C 125.03124,184.64849 125.30663,184.4688 125.56055,184.22661 L 125.56055,185.34576 M 133.07812,182.12896 L 133.07812,182.6563 L 128.4082,182.6563 L 128.4082,182.69146 C 128.4082,183.4063 128.59375,183.95904 128.96484,184.34966 C 129.33984,184.74029 129.86718,184.9356 130.54688,184.9356 C 130.89062,184.9356 131.25,184.88091 131.625,184.77154 C 131.99999,184.66216 132.40038,184.49615 132.82617,184.27349 L 132.82617,185.34576 C 132.41601,185.51372 132.01953,185.63872 131.63672,185.72076 C 131.25781,185.80669 130.89062,185.84966 130.53516,185.84966 C 129.51562,185.84966 128.71875,185.54497 128.14453,184.9356 C 127.57031,184.32232 127.2832,183.47857 127.2832,182.40435 C 127.2832,181.35748 127.56445,180.52154 128.12695,179.89654 C 128.68945,179.27154 129.43945,178.95904 130.37695,178.95904 C 131.21289,178.95904 131.87109,179.24225 132.35156,179.80865 C 132.83593,180.37506 133.07812,181.14849 133.07812,182.12896 M 132,181.81255 C 131.98437,181.17974 131.83398,180.69928 131.54883,180.37115 C 131.26757,180.03912 130.86132,179.87311 130.33008,179.8731 C 129.81054,179.87311 129.38281,180.04498 129.04688,180.38872 C 128.71094,180.73248 128.51172,181.20904 128.44922,181.81841 L 132,181.81255 M 145.10156,178.81841 L 145.10156,181.41997 L 147.70898,181.41997 L 147.70898,182.41607 L 145.10156,182.41607 L 145.10156,185.01763 L 144.11719,185.01763 L 144.11719,182.41607 L 141.51562,182.41607 L 141.51562,181.41997 L 144.11719,181.41997 L 144.11719,178.81841 L 145.10156,178.81841 M 161.6543,185.34576 C 161.36523,185.51372 161.0664,185.63872 160.75781,185.72076 C 160.45312,185.80669 160.14062,185.84966 159.82031,185.84966 C 158.80468,185.84966 158.00976,185.54497 157.43555,184.9356 C 156.86523,184.32623 156.58008,183.48248 156.58008,182.40435 C 156.58008,181.32623 156.86523,180.48248 157.43555,179.8731 C 158.00976,179.26373 158.80468,178.95904 159.82031,178.95904 C 160.13671,178.95904 160.44531,179.00006 160.74609,179.08208 C 161.04687,179.16412 161.3496,179.29107 161.6543,179.46294 L 161.6543,180.5938 C 161.36913,180.3399 161.08203,180.15631 160.79297,180.04302 C 160.50781,179.92975 160.18359,179.87311 159.82031,179.8731 C 159.14453,179.87311 158.625,180.09185 158.26172,180.52935 C 157.89844,180.96685 157.71679,181.59185 157.7168,182.40435 C 157.71679,183.21295 157.89844,183.83794 158.26172,184.27935 C 158.6289,184.71685 159.14843,184.9356 159.82031,184.9356 C 160.19531,184.9356 160.53124,184.87896 160.82812,184.76568 C 161.12499,184.64849 161.40038,184.4688 161.6543,184.22661 L 161.6543,185.34576 M 168.81445,181.61333 L 168.81445,185.67974 L 167.73047,185.67974 L 167.73047,181.61333 C 167.73046,181.02349 167.62695,180.5899 167.41992,180.31255 C 167.21289,180.03521 166.88867,179.89654 166.44727,179.89654 C 165.94336,179.89654 165.55468,180.07623 165.28125,180.4356 C 165.01172,180.79107 164.87695,181.30279 164.87695,181.97076 L 164.87695,185.67974 L 163.79883,185.67974 L 163.79883,179.11724 L 164.87695,179.11724 L 164.87695,180.10161 C 165.06836,179.72662 165.32812,179.44342 165.65625,179.25201 C 165.98437,179.0567 166.37304,178.95904 166.82227,178.95904 C 167.49023,178.95904 167.98828,179.17975 168.31641,179.62115 C 168.64843,180.05865 168.81445,180.72271 168.81445,181.61333 M 173.48438,179.8731 C 172.9375,179.87311 172.52343,180.086 172.24219,180.51177 C 171.96094,180.93756 171.82031,181.56842 171.82031,182.40435 C 171.82031,183.23638 171.96094,183.86724 172.24219,184.29693 C 172.52343,184.72271 172.9375,184.9356 173.48438,184.9356 C 174.03515,184.9356 174.45117,184.72271 174.73242,184.29693 C 175.01367,183.86724 175.15429,183.23638 175.1543,182.40435 C 175.15429,181.56842 175.01367,180.93756 174.73242,180.51177 C 174.45117,180.086 174.03515,179.87311 173.48438,179.8731 M 173.48438,178.95904 C 174.39453,178.95904 175.08984,179.25397 175.57031,179.8438 C 176.05468,180.43365 176.29687,181.28717 176.29688,182.40435 C 176.29687,183.52545 176.05663,184.38091 175.57617,184.97076 C 175.0957,185.55669 174.39843,185.84966 173.48438,185.84966 C 172.57422,185.84966 171.8789,185.55669 171.39844,184.97076 C 170.91797,184.38091 170.67773,183.52545 170.67773,182.40435 C 170.67773,181.28717 170.91797,180.43365 171.39844,179.8438 C 171.8789,179.25397 172.57422,178.95904 173.48438,178.95904 M 183.25195,181.61333 L 183.25195,185.67974 L 182.16797,185.67974 L 182.16797,181.61333 C 182.16796,181.02349 182.06445,180.5899 181.85742,180.31255 C 181.65039,180.03521 181.32617,179.89654 180.88477,179.89654 C 180.38086,179.89654 179.99218,180.07623 179.71875,180.4356 C 179.44922,180.79107 179.31445,181.30279 179.31445,181.97076 L 179.31445,185.67974 L 178.23633,185.67974 L 178.23633,179.11724 L 179.31445,179.11724 L 179.31445,180.10161 C 179.50586,179.72662 179.76562,179.44342 180.09375,179.25201 C 180.42187,179.0567 180.81054,178.95904 181.25977,178.95904 C 181.92773,178.95904 182.42578,179.17975 182.75391,179.62115 C 183.08593,180.05865 183.25195,180.72271 183.25195,181.61333 M 190.5293,185.34576 C 190.24023,185.51372 189.9414,185.63872 189.63281,185.72076 C 189.32812,185.80669 189.01562,185.84966 188.69531,185.84966 C 187.67968,185.84966 186.88476,185.54497 186.31055,184.9356 C 185.74023,184.32623 185.45508,183.48248 185.45508,182.40435 C 185.45508,181.32623 185.74023,180.48248 186.31055,179.8731 C 186.88476,179.26373 187.67968,178.95904 188.69531,178.95904 C 189.01171,178.95904 189.32031,179.00006 189.62109,179.08208 C 189.92187,179.16412 190.2246,179.29107 190.5293,179.46294 L 190.5293,180.5938 C 190.24413,180.3399 189.95703,180.15631 189.66797,180.04302 C 189.38281,179.92975 189.05859,179.87311 188.69531,179.8731 C 188.01953,179.87311 187.5,180.09185 187.13672,180.52935 C 186.77344,180.96685 186.59179,181.59185 186.5918,182.40435 C 186.59179,183.21295 186.77344,183.83794 187.13672,184.27935 C 187.5039,184.71685 188.02343,184.9356 188.69531,184.9356 C 189.07031,184.9356 189.40624,184.87896 189.70312,184.76568 C 189.99999,184.64849 190.27538,184.4688 190.5293,184.22661 L 190.5293,185.34576 M 198.04688,182.12896 L 198.04688,182.6563 L 193.37695,182.6563 L 193.37695,182.69146 C 193.37695,183.4063 193.5625,183.95904 193.93359,184.34966 C 194.30859,184.74029 194.83593,184.9356 195.51562,184.9356 C 195.85937,184.9356 196.21875,184.88091 196.59375,184.77154 C 196.96874,184.66216 197.36913,184.49615 197.79492,184.27349 L 197.79492,185.34576 C 197.38476,185.51372 196.98828,185.63872 196.60547,185.72076 C 196.22656,185.80669 195.85937,185.84966 195.50391,185.84966 C 194.48437,185.84966 193.6875,185.54497 193.11328,184.9356 C 192.53906,184.32232 192.25195,183.47857 192.25195,182.40435 C 192.25195,181.35748 192.5332,180.52154 193.0957,179.89654 C 193.6582,179.27154 194.4082,178.95904 195.3457,178.95904 C 196.18164,178.95904 196.83984,179.24225 197.32031,179.80865 C 197.80468,180.37506 198.04687,181.14849 198.04688,182.12896 M 196.96875,181.81255 C 196.95312,181.17974 196.80273,180.69928 196.51758,180.37115 C 196.23632,180.03912 195.83007,179.87311 195.29883,179.8731 C 194.77929,179.87311 194.35156,180.04498 194.01562,180.38872 C 193.67969,180.73248 193.48047,181.20904 193.41797,181.81841 L 196.96875,181.81255 M 210.07031,178.81841 L 210.07031,181.41997 L 212.67773,181.41997 L 212.67773,182.41607 L 210.07031,182.41607 L 210.07031,185.01763 L 209.08594,185.01763 L 209.08594,182.41607 L 206.48438,182.41607 L 206.48438,181.41997 L 209.08594,181.41997 L 209.08594,178.81841 L 210.07031,178.81841 M 222.60352,184.85357 L 222.60352,188.17583 L 221.51953,188.17583 L 221.51953,179.11724 L 222.60352,179.11724 L 222.60352,179.95513 C 222.7832,179.63092 223.02148,179.38482 223.31836,179.21685 C 223.61914,179.04498 223.96484,178.95904 224.35547,178.95904 C 225.14843,178.95904 225.76953,179.26568 226.21875,179.87896 C 226.67187,180.49225 226.89843,181.34185 226.89844,182.42779 C 226.89843,183.4942 226.67187,184.33209 226.21875,184.94146 C 225.76562,185.54693 225.14453,185.84966 224.35547,185.84966 C 223.95703,185.84966 223.60742,185.76568 223.30664,185.59771 C 223.00976,185.42583 222.77539,185.17779 222.60352,184.85357 M 225.76758,182.40435 C 225.76757,181.56842 225.63476,180.93756 225.36914,180.51177 C 225.10742,180.086 224.71679,179.87311 224.19727,179.8731 C 223.67382,179.87311 223.27734,180.08795 223.00781,180.51763 C 222.73828,180.94342 222.60351,181.57232 222.60352,182.40435 C 222.60351,183.23248 222.73828,183.86138 223.00781,184.29107 C 223.27734,184.72076 223.67382,184.9356 224.19727,184.9356 C 224.71679,184.9356 225.10742,184.72271 225.36914,184.29693 C 225.63476,183.87115 225.76757,183.24029 225.76758,182.40435 M 231.73828,182.38091 L 231.38086,182.38091 C 230.75195,182.38092 230.27734,182.49224 229.95703,182.7149 C 229.64062,182.93365 229.48242,183.26177 229.48242,183.69927 C 229.48242,184.0938 229.60156,184.40044 229.83984,184.61919 C 230.07812,184.83794 230.4082,184.94732 230.83008,184.94732 C 231.42382,184.94732 231.89062,184.74224 232.23047,184.33208 C 232.57031,183.91802 232.74218,183.34771 232.74609,182.62115 L 232.74609,182.38091 L 231.73828,182.38091 M 233.83008,181.9356 L 233.83008,185.67974 L 232.74609,185.67974 L 232.74609,184.70708 C 232.51562,185.09771 232.2246,185.38677 231.87305,185.57427 C 231.52539,185.75786 231.10156,185.84966 230.60156,185.84966 C 229.93359,185.84966 229.40039,185.66216 229.00195,185.28716 C 228.60351,184.90826 228.4043,184.4024 228.4043,183.76958 C 228.4043,183.03912 228.64844,182.48443 229.13672,182.10552 C 229.6289,181.72662 230.34961,181.53717 231.29883,181.53716 L 232.74609,181.53716 L 232.74609,181.36724 C 232.74218,180.84381 232.60937,180.4649 232.34766,180.23052 C 232.08593,179.99225 231.66796,179.87311 231.09375,179.8731 C 230.72656,179.87311 230.35547,179.92584 229.98047,180.0313 C 229.60547,180.13678 229.24023,180.29107 228.88477,180.49419 L 228.88477,179.41607 C 229.2832,179.26373 229.66406,179.15045 230.02734,179.07622 C 230.39453,178.99811 230.75,178.95904 231.09375,178.95904 C 231.63671,178.95904 232.0996,179.03912 232.48242,179.19927 C 232.86914,179.35943 233.18164,179.59967 233.41992,179.91997 C 233.56835,180.11529 233.67382,180.35748 233.73633,180.64654 C 233.79882,180.9317 233.83007,181.36138 233.83008,181.9356 M 240.54492,179.34576 L 240.54492,180.40044 C 240.23632,180.22076 239.92578,180.086 239.61328,179.99615 C 239.30078,179.90631 238.98242,179.86139 238.6582,179.86138 C 238.16992,179.86139 237.80468,179.94146 237.5625,180.10161 C 237.32422,180.25787 237.20508,180.4981 237.20508,180.82232 C 237.20508,181.11529 237.29492,181.33404 237.47461,181.47857 C 237.65429,181.6231 238.10156,181.76373 238.81641,181.90044 L 239.25,181.98247 C 239.78515,182.08404 240.18945,182.28717 240.46289,182.59185 C 240.74023,182.89654 240.8789,183.29302 240.87891,183.7813 C 240.8789,184.42974 240.64843,184.93755 240.1875,185.30474 C 239.72656,185.66802 239.08593,185.84966 238.26562,185.84966 C 237.9414,185.84966 237.60156,185.81451 237.24609,185.74419 C 236.89062,185.67779 236.50586,185.57622 236.0918,185.43951 L 236.0918,184.32622 C 236.49414,184.53326 236.8789,184.68951 237.24609,184.79497 C 237.61328,184.89654 237.96093,184.94732 238.28906,184.94732 C 238.76562,184.94732 239.13476,184.85162 239.39648,184.66021 C 239.6582,184.4649 239.78906,184.19341 239.78906,183.84576 C 239.78906,183.34576 239.31054,183.00006 238.35352,182.80865 L 238.30664,182.79693 L 237.90234,182.7149 C 237.28125,182.59381 236.82812,182.39068 236.54297,182.10552 C 236.25781,181.81646 236.11523,181.42388 236.11523,180.92779 C 236.11523,180.29889 236.32812,179.81451 236.75391,179.47466 C 237.17969,179.13092 237.78711,178.95904 238.57617,178.95904 C 238.92773,178.95904 239.26562,178.99225 239.58984,179.05865 C 239.91406,179.12115 240.23242,179.21686 240.54492,179.34576 M 247.76367,179.34576 L 247.76367,180.40044 C 247.45507,180.22076 247.14453,180.086 246.83203,179.99615 C 246.51953,179.90631 246.20117,179.86139 245.87695,179.86138 C 245.38867,179.86139 245.02343,179.94146 244.78125,180.10161 C 244.54297,180.25787 244.42383,180.4981 244.42383,180.82232 C 244.42383,181.11529 244.51367,181.33404 244.69336,181.47857 C 244.87304,181.6231 245.32031,181.76373 246.03516,181.90044 L 246.46875,181.98247 C 247.0039,182.08404 247.4082,182.28717 247.68164,182.59185 C 247.95898,182.89654 248.09765,183.29302 248.09766,183.7813 C 248.09765,184.42974 247.86718,184.93755 247.40625,185.30474 C 246.94531,185.66802 246.30468,185.84966 245.48438,185.84966 C 245.16015,185.84966 244.82031,185.81451 244.46484,185.74419 C 244.10937,185.67779 243.72461,185.57622 243.31055,185.43951 L 243.31055,184.32622 C 243.71289,184.53326 244.09765,184.68951 244.46484,184.79497 C 244.83203,184.89654 245.17968,184.94732 245.50781,184.94732 C 245.98437,184.94732 246.35351,184.85162 246.61523,184.66021 C 246.87695,184.4649 247.00781,184.19341 247.00781,183.84576 C 247.00781,183.34576 246.52929,183.00006 245.57227,182.80865 L 245.52539,182.79693 L 245.12109,182.7149 C 244.5,182.59381 244.04687,182.39068 243.76172,182.10552 C 243.47656,181.81646 243.33398,181.42388 243.33398,180.92779 C 243.33398,180.29889 243.54687,179.81451 243.97266,179.47466 C 244.39844,179.13092 245.00586,178.95904 245.79492,178.95904 C 246.14648,178.95904 246.48437,178.99225 246.80859,179.05865 C 247.13281,179.12115 247.45117,179.21686 247.76367,179.34576 M 249.28125,179.11724 L 250.34766,179.11724 L 251.49023,184.41997 L 252.42773,181.03326 L 253.34766,181.03326 L 254.29688,184.41997 L 255.43945,179.11724 L 256.50586,179.11724 L 254.9707,185.67974 L 253.93945,185.67974 L 252.89062,182.08208 L 251.84766,185.67974 L 250.81641,185.67974 L 249.28125,179.11724 M 260.10938,179.8731 C 259.5625,179.87311 259.14843,180.086 258.86719,180.51177 C 258.58594,180.93756 258.44531,181.56842 258.44531,182.40435 C 258.44531,183.23638 258.58594,183.86724 258.86719,184.29693 C 259.14843,184.72271 259.5625,184.9356 260.10938,184.9356 C 260.66015,184.9356 261.07617,184.72271 261.35742,184.29693 C 261.63867,183.86724 261.77929,183.23638 261.7793,182.40435 C 261.77929,181.56842 261.63867,180.93756 261.35742,180.51177 C 261.07617,180.086 260.66015,179.87311 260.10938,179.8731 M 260.10938,178.95904 C 261.01953,178.95904 261.71484,179.25397 262.19531,179.8438 C 262.67968,180.43365 262.92187,181.28717 262.92188,182.40435 C 262.92187,183.52545 262.68163,184.38091 262.20117,184.97076 C 261.7207,185.55669 261.02343,185.84966 260.10938,185.84966 C 259.19922,185.84966 258.5039,185.55669 258.02344,184.97076 C 257.54297,184.38091 257.30273,183.52545 257.30273,182.40435 C 257.30273,181.28717 257.54297,180.43365 258.02344,179.8438 C 258.5039,179.25397 259.19922,178.95904 260.10938,178.95904 M 270.48633,180.47076 C 270.25585,180.29107 270.02148,180.16021 269.7832,180.07818 C 269.54492,179.99615 269.2832,179.95514 268.99805,179.95513 C 268.32617,179.95514 267.8125,180.16607 267.45703,180.58794 C 267.10156,181.00982 266.92382,181.6192 266.92383,182.41607 L 266.92383,185.67974 L 265.83984,185.67974 L 265.83984,179.11724 L 266.92383,179.11724 L 266.92383,180.40044 C 267.10351,179.93561 267.3789,179.58014 267.75,179.33404 C 268.125,179.08404 268.56835,178.95904 269.08008,178.95904 C 269.3457,178.95904 269.59374,178.99225 269.82422,179.05865 C 270.05468,179.12506 270.27538,179.22857 270.48633,179.36919 L 270.48633,180.47076 M 275.96484,179.95513 L 275.96484,176.56255 L 277.04297,176.56255 L 277.04297,185.67974 L 275.96484,185.67974 L 275.96484,184.85357 C 275.78515,185.17779 275.54492,185.42583 275.24414,185.59771 C 274.94726,185.76568 274.60351,185.84966 274.21289,185.84966 C 273.41992,185.84966 272.79492,185.54302 272.33789,184.92974 C 271.88476,184.31255 271.6582,183.46295 271.6582,182.38091 C 271.6582,181.31451 271.88672,180.47857 272.34375,179.8731 C 272.80078,179.26373 273.42383,178.95904 274.21289,178.95904 C 274.60742,178.95904 274.95507,179.04498 275.25586,179.21685 C 275.55664,179.38482 275.79296,179.63092 275.96484,179.95513 M 272.79492,182.40435 C 272.79492,183.24029 272.92773,183.87115 273.19336,184.29693 C 273.45898,184.72271 273.85156,184.9356 274.37109,184.9356 C 274.89062,184.9356 275.28515,184.72076 275.55469,184.29107 C 275.82812,183.86138 275.96484,183.23248 275.96484,182.40435 C 275.96484,181.57232 275.82812,180.94342 275.55469,180.51763 C 275.28515,180.08795 274.89062,179.87311 274.37109,179.8731 C 273.85156,179.87311 273.45898,180.086 273.19336,180.51177 C 272.92773,180.93756 272.79492,181.56842 272.79492,182.40435 M 280.19531,176.57427 L 281.13281,176.57427 C 281.72265,177.49615 282.16211,178.3985 282.45117,179.2813 C 282.74023,180.16412 282.88476,181.04107 282.88477,181.91216 C 282.88476,182.79107 282.74023,183.67193 282.45117,184.55474 C 282.16211,185.43755 281.72265,186.3399 281.13281,187.26177 L 280.19531,187.26177 C 280.71484,186.35552 281.10156,185.45904 281.35547,184.57232 C 281.61328,183.6856 281.74218,182.79888 281.74219,181.91216 C 281.74218,181.02154 281.61328,180.13287 281.35547,179.24615 C 281.10156,178.35943 280.71484,177.46881 280.19531,176.57427 M 287.41406,176.57427 L 288.35156,176.57427 C 288.9414,177.49615 289.38086,178.3985 289.66992,179.2813 C 289.95898,180.16412 290.10351,181.04107 290.10352,181.91216 C 290.10351,182.79107 289.95898,183.67193 289.66992,184.55474 C 289.38086,185.43755 288.9414,186.3399 288.35156,187.26177 L 287.41406,187.26177 C 287.93359,186.35552 288.32031,185.45904 288.57422,184.57232 C 288.83203,183.6856 288.96093,182.79888 288.96094,181.91216 C 288.96093,181.02154 288.83203,180.13287 288.57422,179.24615 C 288.32031,178.35943 287.93359,177.46881 287.41406,176.57427"
       id="flowRoot2183" />
  </g>
</svg>
